%TF.GenerationSoftware,KiCad,Pcbnew,9.0.4*%
%TF.CreationDate,2025-11-24T10:01:02-06:00*%
%TF.ProjectId,birdcage_rat_head,62697264-6361-4676-955f-7261745f6865,rev?*%
%TF.SameCoordinates,Original*%
%TF.FileFunction,Copper,L1,Top*%
%TF.FilePolarity,Positive*%
%FSLAX46Y46*%
G04 Gerber Fmt 4.6, Leading zero omitted, Abs format (unit mm)*
G04 Created by KiCad (PCBNEW 9.0.4) date 2025-11-24 10:01:02*
%MOMM*%
%LPD*%
G01*
G04 APERTURE LIST*
G04 Aperture macros list*
%AMRoundRect*
0 Rectangle with rounded corners*
0 $1 Rounding radius*
0 $2 $3 $4 $5 $6 $7 $8 $9 X,Y pos of 4 corners*
0 Add a 4 corners polygon primitive as box body*
4,1,4,$2,$3,$4,$5,$6,$7,$8,$9,$2,$3,0*
0 Add four circle primitives for the rounded corners*
1,1,$1+$1,$2,$3*
1,1,$1+$1,$4,$5*
1,1,$1+$1,$6,$7*
1,1,$1+$1,$8,$9*
0 Add four rect primitives between the rounded corners*
20,1,$1+$1,$2,$3,$4,$5,0*
20,1,$1+$1,$4,$5,$6,$7,0*
20,1,$1+$1,$6,$7,$8,$9,0*
20,1,$1+$1,$8,$9,$2,$3,0*%
G04 Aperture macros list end*
%TA.AperFunction,Conductor*%
%ADD10C,0.500000*%
%TD*%
%TA.AperFunction,SMDPad,CuDef*%
%ADD11RoundRect,0.500000X-1.000000X-1.000000X1.000000X-1.000000X1.000000X1.000000X-1.000000X1.000000X0*%
%TD*%
%TA.AperFunction,SMDPad,CuDef*%
%ADD12RoundRect,0.250000X-0.250000X1.750000X-0.250000X-1.750000X0.250000X-1.750000X0.250000X1.750000X0*%
%TD*%
%TA.AperFunction,SMDPad,CuDef*%
%ADD13RoundRect,0.250000X-0.250000X2.250000X-0.250000X-2.250000X0.250000X-2.250000X0.250000X2.250000X0*%
%TD*%
%TA.AperFunction,SMDPad,CuDef*%
%ADD14C,1.700000*%
%TD*%
%TA.AperFunction,SMDPad,CuDef*%
%ADD15RoundRect,0.250000X1.250000X-0.250000X1.250000X0.250000X-1.250000X0.250000X-1.250000X-0.250000X0*%
%TD*%
%TA.AperFunction,SMDPad,CuDef*%
%ADD16RoundRect,0.250000X0.250000X-1.250000X0.250000X1.250000X-0.250000X1.250000X-0.250000X-1.250000X0*%
%TD*%
%TA.AperFunction,ViaPad*%
%ADD17C,3.000000*%
%TD*%
G04 APERTURE END LIST*
%TO.N,Net-(C1-Pad2)*%
D10*
X65343319Y-37070000D02*
X191543530Y-37070000D01*
X191543530Y-39570000D01*
X65343319Y-39570000D01*
X65343319Y-37070000D01*
%TA.AperFunction,Conductor*%
G36*
X65343319Y-37070000D02*
G01*
X191543530Y-37070000D01*
X191543530Y-39570000D01*
X65343319Y-39570000D01*
X65343319Y-37070000D01*
G37*
%TD.AperFunction*%
%TO.N,AC - 0*%
X87810000Y-94289400D02*
X88310000Y-94289400D01*
X88310000Y-101370000D01*
X87810000Y-101370000D01*
X87810000Y-94289400D01*
%TA.AperFunction,Conductor*%
G36*
X87810000Y-94289400D02*
G01*
X88310000Y-94289400D01*
X88310000Y-101370000D01*
X87810000Y-101370000D01*
X87810000Y-94289400D01*
G37*
%TD.AperFunction*%
X80949700Y-94230300D02*
X88310300Y-94230300D01*
X88310300Y-94730300D01*
X80949700Y-94730300D01*
X80949700Y-94230300D01*
%TA.AperFunction,Conductor*%
G36*
X80949700Y-94230300D02*
G01*
X88310300Y-94230300D01*
X88310300Y-94730300D01*
X80949700Y-94730300D01*
X80949700Y-94230300D01*
G37*
%TD.AperFunction*%
%TO.N,Net-(C23-Pad2)*%
X139563446Y-42070000D02*
X142063446Y-42070000D01*
X142063446Y-87570000D01*
X139563446Y-87570000D01*
X139563446Y-42070000D01*
%TA.AperFunction,Conductor*%
G36*
X139563446Y-42070000D02*
G01*
X142063446Y-42070000D01*
X142063446Y-87570000D01*
X139563446Y-87570000D01*
X139563446Y-42070000D01*
G37*
%TD.AperFunction*%
%TO.N,AC - 0*%
X87810000Y-101990000D02*
X93330600Y-101990000D01*
X93330600Y-102490000D01*
X87810000Y-102490000D01*
X87810000Y-101990000D01*
%TA.AperFunction,Conductor*%
G36*
X87810000Y-101990000D02*
G01*
X93330600Y-101990000D01*
X93330600Y-102490000D01*
X87810000Y-102490000D01*
X87810000Y-101990000D01*
G37*
%TD.AperFunction*%
%TO.N,Net-(C12-Pad1)*%
X164303488Y-42070000D02*
X166803488Y-42070000D01*
X166803488Y-87570000D01*
X164303488Y-87570000D01*
X164303488Y-42070000D01*
%TA.AperFunction,Conductor*%
G36*
X164303488Y-42070000D02*
G01*
X166803488Y-42070000D01*
X166803488Y-87570000D01*
X164303488Y-87570000D01*
X164303488Y-42070000D01*
G37*
%TD.AperFunction*%
%TO.N,GND*%
X83480000Y-97610000D02*
X83980000Y-97610000D01*
X83980000Y-102550600D01*
X83480000Y-102550600D01*
X83480000Y-97610000D01*
%TA.AperFunction,Conductor*%
G36*
X83480000Y-97610000D02*
G01*
X83980000Y-97610000D01*
X83980000Y-102550600D01*
X83480000Y-102550600D01*
X83480000Y-97610000D01*
G37*
%TD.AperFunction*%
X78440000Y-91050600D02*
X78940000Y-91050600D01*
X78940000Y-102550600D01*
X78440000Y-102550600D01*
X78440000Y-91050600D01*
%TA.AperFunction,Conductor*%
G36*
X78440000Y-91050600D02*
G01*
X78940000Y-91050600D01*
X78940000Y-102550600D01*
X78440000Y-102550600D01*
X78440000Y-91050600D01*
G37*
%TD.AperFunction*%
%TO.N,Net-(C14-Pad1)*%
X180796849Y-42070000D02*
X183296849Y-42070000D01*
X183296849Y-87570000D01*
X180796849Y-87570000D01*
X180796849Y-42070000D01*
%TA.AperFunction,Conductor*%
G36*
X180796849Y-42070000D02*
G01*
X183296849Y-42070000D01*
X183296849Y-87570000D01*
X180796849Y-87570000D01*
X180796849Y-42070000D01*
G37*
%TD.AperFunction*%
%TO.N,Net-(C5-Pad1)*%
X90339700Y-97070000D02*
X99820300Y-97070000D01*
X99820300Y-97570000D01*
X90339700Y-97570000D01*
X90339700Y-97070000D01*
%TA.AperFunction,Conductor*%
G36*
X90339700Y-97070000D02*
G01*
X99820300Y-97070000D01*
X99820300Y-97570000D01*
X90339700Y-97570000D01*
X90339700Y-97070000D01*
G37*
%TD.AperFunction*%
%TO.N,Net-(C8-Pad1)*%
X132310000Y-95419700D02*
X132810000Y-95419700D01*
X132810000Y-97560300D01*
X132310000Y-97560300D01*
X132310000Y-95419700D01*
%TA.AperFunction,Conductor*%
G36*
X132310000Y-95419700D02*
G01*
X132810000Y-95419700D01*
X132810000Y-97560300D01*
X132310000Y-97560300D01*
X132310000Y-95419700D01*
G37*
%TD.AperFunction*%
%TO.N,Net-(C10-Pad1)*%
X147810127Y-42070000D02*
X150310127Y-42070000D01*
X150310127Y-87570000D01*
X147810127Y-87570000D01*
X147810127Y-42070000D01*
%TA.AperFunction,Conductor*%
G36*
X147810127Y-42070000D02*
G01*
X150310127Y-42070000D01*
X150310127Y-87570000D01*
X147810127Y-87570000D01*
X147810127Y-42070000D01*
G37*
%TD.AperFunction*%
%TO.N,AC - 90*%
X143769700Y-94230300D02*
X151130300Y-94230300D01*
X151130300Y-94730300D01*
X143769700Y-94730300D01*
X143769700Y-94230300D01*
%TA.AperFunction,Conductor*%
G36*
X143769700Y-94230300D02*
G01*
X151130300Y-94230300D01*
X151130300Y-94730300D01*
X143769700Y-94730300D01*
X143769700Y-94230300D01*
G37*
%TD.AperFunction*%
X138759700Y-101990000D02*
X144280300Y-101990000D01*
X144280300Y-102490000D01*
X138759700Y-102490000D01*
X138759700Y-101990000D01*
%TA.AperFunction,Conductor*%
G36*
X138759700Y-101990000D02*
G01*
X144280300Y-101990000D01*
X144280300Y-102490000D01*
X138759700Y-102490000D01*
X138759700Y-101990000D01*
G37*
%TD.AperFunction*%
%TO.N,Net-(C21-Pad2)*%
X114823404Y-42070000D02*
X117323404Y-42070000D01*
X117323404Y-87570000D01*
X114823404Y-87570000D01*
X114823404Y-42070000D01*
%TA.AperFunction,Conductor*%
G36*
X114823404Y-42070000D02*
G01*
X117323404Y-42070000D01*
X117323404Y-87570000D01*
X114823404Y-87570000D01*
X114823404Y-42070000D01*
G37*
%TD.AperFunction*%
%TO.N,GND*%
X148140000Y-97610000D02*
X148640000Y-97610000D01*
X148640000Y-102550600D01*
X148140000Y-102550600D01*
X148140000Y-97610000D01*
%TA.AperFunction,Conductor*%
G36*
X148140000Y-97610000D02*
G01*
X148640000Y-97610000D01*
X148640000Y-102550600D01*
X148140000Y-102550600D01*
X148140000Y-97610000D01*
G37*
%TD.AperFunction*%
%TO.N,Net-(C15-Pad1)*%
X189043530Y-42070000D02*
X191543530Y-42070000D01*
X191543530Y-87570000D01*
X189043530Y-87570000D01*
X189043530Y-42070000D01*
%TA.AperFunction,Conductor*%
G36*
X189043530Y-42070000D02*
G01*
X191543530Y-42070000D01*
X191543530Y-87570000D01*
X189043530Y-87570000D01*
X189043530Y-42070000D01*
G37*
%TD.AperFunction*%
%TO.N,Net-(C13-Pad1)*%
X172550169Y-42070000D02*
X175050169Y-42070000D01*
X175050169Y-87570000D01*
X172550169Y-87570000D01*
X172550169Y-42070000D01*
%TA.AperFunction,Conductor*%
G36*
X172550169Y-42070000D02*
G01*
X175050169Y-42070000D01*
X175050169Y-87570000D01*
X172550169Y-87570000D01*
X172550169Y-42070000D01*
G37*
%TD.AperFunction*%
%TO.N,GND*%
X148309400Y-102300600D02*
X153430000Y-102300600D01*
X153430000Y-102800600D01*
X148309400Y-102800600D01*
X148309400Y-102300600D01*
%TA.AperFunction,Conductor*%
G36*
X148309400Y-102300600D02*
G01*
X153430000Y-102300600D01*
X153430000Y-102800600D01*
X148309400Y-102800600D01*
X148309400Y-102300600D01*
G37*
%TD.AperFunction*%
%TO.N,Net-(C1-Pad1)*%
X65343319Y-42070000D02*
X67843319Y-42070000D01*
X67843319Y-87570000D01*
X65343319Y-87570000D01*
X65343319Y-42070000D01*
%TA.AperFunction,Conductor*%
G36*
X65343319Y-42070000D02*
G01*
X67843319Y-42070000D01*
X67843319Y-87570000D01*
X65343319Y-87570000D01*
X65343319Y-42070000D01*
G37*
%TD.AperFunction*%
%TO.N,Net-(C20-Pad2)*%
X106576723Y-42070000D02*
X109076723Y-42070000D01*
X109076723Y-87570000D01*
X106576723Y-87570000D01*
X106576723Y-42070000D01*
%TA.AperFunction,Conductor*%
G36*
X106576723Y-42070000D02*
G01*
X109076723Y-42070000D01*
X109076723Y-87570000D01*
X106576723Y-87570000D01*
X106576723Y-42070000D01*
G37*
%TD.AperFunction*%
%TO.N,GND*%
X96799700Y-101990000D02*
X104970300Y-101990000D01*
X104970300Y-102490000D01*
X96799700Y-102490000D01*
X96799700Y-101990000D01*
%TA.AperFunction,Conductor*%
G36*
X96799700Y-101990000D02*
G01*
X104970300Y-101990000D01*
X104970300Y-102490000D01*
X96799700Y-102490000D01*
X96799700Y-101990000D01*
G37*
%TD.AperFunction*%
X104470000Y-90819700D02*
X104970000Y-90819700D01*
X104970000Y-102479700D01*
X104470000Y-102479700D01*
X104470000Y-90819700D01*
%TA.AperFunction,Conductor*%
G36*
X104470000Y-90819700D02*
G01*
X104970000Y-90819700D01*
X104970000Y-102479700D01*
X104470000Y-102479700D01*
X104470000Y-90819700D01*
G37*
%TD.AperFunction*%
%TO.N,AC - 0*%
X80950042Y-94229400D02*
X81450042Y-94229400D01*
X81450042Y-100050000D01*
X80950042Y-100050000D01*
X80950042Y-94229400D01*
%TA.AperFunction,Conductor*%
G36*
X80950042Y-94229400D02*
G01*
X81450042Y-94229400D01*
X81450042Y-100050000D01*
X80950042Y-100050000D01*
X80950042Y-94229400D01*
G37*
%TD.AperFunction*%
%TO.N,GND*%
X65343319Y-90070000D02*
X191543530Y-90070000D01*
X191543530Y-92570000D01*
X65343319Y-92570000D01*
X65343319Y-90070000D01*
%TA.AperFunction,Conductor*%
G36*
X65343319Y-90070000D02*
G01*
X191543530Y-90070000D01*
X191543530Y-92570000D01*
X65343319Y-92570000D01*
X65343319Y-90070000D01*
G37*
%TD.AperFunction*%
X153180000Y-91230000D02*
X153680000Y-91230000D01*
X153680000Y-102550600D01*
X153180000Y-102550600D01*
X153180000Y-91230000D01*
%TA.AperFunction,Conductor*%
G36*
X153180000Y-91230000D02*
G01*
X153680000Y-91230000D01*
X153680000Y-102550600D01*
X153180000Y-102550600D01*
X153180000Y-91230000D01*
G37*
%TD.AperFunction*%
%TO.N,Net-(C11-Pad1)*%
X156056807Y-42070000D02*
X158556807Y-42070000D01*
X158556807Y-87570000D01*
X156056807Y-87570000D01*
X156056807Y-42070000D01*
%TA.AperFunction,Conductor*%
G36*
X156056807Y-42070000D02*
G01*
X158556807Y-42070000D01*
X158556807Y-87570000D01*
X156056807Y-87570000D01*
X156056807Y-42070000D01*
G37*
%TD.AperFunction*%
%TO.N,Net-(C8-Pad1)*%
X132309400Y-97070000D02*
X141790000Y-97070000D01*
X141790000Y-97570000D01*
X132309400Y-97570000D01*
X132309400Y-97070000D01*
%TA.AperFunction,Conductor*%
G36*
X132309400Y-97070000D02*
G01*
X141790000Y-97070000D01*
X141790000Y-97570000D01*
X132309400Y-97570000D01*
X132309400Y-97070000D01*
G37*
%TD.AperFunction*%
%TO.N,AC - 90*%
X143790000Y-94279400D02*
X144290000Y-94279400D01*
X144290000Y-101360000D01*
X143790000Y-101360000D01*
X143790000Y-94279400D01*
%TA.AperFunction,Conductor*%
G36*
X143790000Y-94279400D02*
G01*
X144290000Y-94279400D01*
X144290000Y-101360000D01*
X143790000Y-101360000D01*
X143790000Y-94279400D01*
G37*
%TD.AperFunction*%
%TO.N,Net-(C22-Pad2)*%
X123070084Y-42070000D02*
X125570084Y-42070000D01*
X125570084Y-87570000D01*
X123070084Y-87570000D01*
X123070084Y-42070000D01*
%TA.AperFunction,Conductor*%
G36*
X123070084Y-42070000D02*
G01*
X125570084Y-42070000D01*
X125570084Y-87570000D01*
X123070084Y-87570000D01*
X123070084Y-42070000D01*
G37*
%TD.AperFunction*%
%TO.N,Net-(C17-Pad2)*%
X73590000Y-42070000D02*
X76090000Y-42070000D01*
X76090000Y-87570000D01*
X73590000Y-87570000D01*
X73590000Y-42070000D01*
%TA.AperFunction,Conductor*%
G36*
X73590000Y-42070000D02*
G01*
X76090000Y-42070000D01*
X76090000Y-87570000D01*
X73590000Y-87570000D01*
X73590000Y-42070000D01*
G37*
%TD.AperFunction*%
%TO.N,Net-(C8-Pad1)*%
X131316765Y-42070000D02*
X133816765Y-42070000D01*
X133816765Y-87570000D01*
X131316765Y-87570000D01*
X131316765Y-42070000D01*
%TA.AperFunction,Conductor*%
G36*
X131316765Y-42070000D02*
G01*
X133816765Y-42070000D01*
X133816765Y-87570000D01*
X131316765Y-87570000D01*
X131316765Y-42070000D01*
G37*
%TD.AperFunction*%
%TO.N,GND*%
X127130000Y-91000000D02*
X127630000Y-91000000D01*
X127630000Y-102480000D01*
X127130000Y-102480000D01*
X127130000Y-91000000D01*
%TA.AperFunction,Conductor*%
G36*
X127130000Y-91000000D02*
G01*
X127630000Y-91000000D01*
X127630000Y-102480000D01*
X127130000Y-102480000D01*
X127130000Y-91000000D01*
G37*
%TD.AperFunction*%
%TO.N,Net-(C18-Pad2)*%
X81836681Y-42070000D02*
X84336681Y-42070000D01*
X84336681Y-87570000D01*
X81836681Y-87570000D01*
X81836681Y-42070000D01*
%TA.AperFunction,Conductor*%
G36*
X81836681Y-42070000D02*
G01*
X84336681Y-42070000D01*
X84336681Y-87570000D01*
X81836681Y-87570000D01*
X81836681Y-42070000D01*
G37*
%TD.AperFunction*%
%TO.N,Net-(C19-Pad2)*%
X90083362Y-42070000D02*
X92583362Y-42070000D01*
X92583362Y-87570000D01*
X90083362Y-87570000D01*
X90083362Y-42070000D01*
%TA.AperFunction,Conductor*%
G36*
X90083362Y-42070000D02*
G01*
X92583362Y-42070000D01*
X92583362Y-87570000D01*
X90083362Y-87570000D01*
X90083362Y-42070000D01*
G37*
%TD.AperFunction*%
%TO.N,AC - 90*%
X150660000Y-94229400D02*
X151160000Y-94229400D01*
X151160000Y-100050000D01*
X150660000Y-100050000D01*
X150660000Y-94229400D01*
%TA.AperFunction,Conductor*%
G36*
X150660000Y-94229400D02*
G01*
X151160000Y-94229400D01*
X151160000Y-100050000D01*
X150660000Y-100050000D01*
X150660000Y-94229400D01*
G37*
%TD.AperFunction*%
%TO.N,Net-(C5-Pad1)*%
X99320000Y-97194600D02*
X99820000Y-97194600D01*
X99820000Y-97390000D01*
X99320000Y-97390000D01*
X99320000Y-97194600D01*
%TA.AperFunction,Conductor*%
G36*
X99320000Y-97194600D02*
G01*
X99820000Y-97194600D01*
X99820000Y-97390000D01*
X99320000Y-97390000D01*
X99320000Y-97194600D01*
G37*
%TD.AperFunction*%
%TO.N,GND*%
X78609400Y-102300600D02*
X83730000Y-102300600D01*
X83730000Y-102800600D01*
X78609400Y-102800600D01*
X78609400Y-102300600D01*
%TA.AperFunction,Conductor*%
G36*
X78609400Y-102300600D02*
G01*
X83730000Y-102300600D01*
X83730000Y-102800600D01*
X78609400Y-102800600D01*
X78609400Y-102300600D01*
G37*
%TD.AperFunction*%
%TO.N,Net-(C5-Pad1)*%
X98330042Y-42070000D02*
X100830042Y-42070000D01*
X100830042Y-87570000D01*
X98330042Y-87570000D01*
X98330042Y-42070000D01*
%TA.AperFunction,Conductor*%
G36*
X98330042Y-42070000D02*
G01*
X100830042Y-42070000D01*
X100830042Y-87570000D01*
X98330042Y-87570000D01*
X98330042Y-42070000D01*
G37*
%TD.AperFunction*%
%TO.N,GND*%
X127129400Y-101990000D02*
X135300000Y-101990000D01*
X135300000Y-102490000D01*
X127129400Y-102490000D01*
X127129400Y-101990000D01*
%TA.AperFunction,Conductor*%
G36*
X127129400Y-101990000D02*
G01*
X135300000Y-101990000D01*
X135300000Y-102490000D01*
X127129400Y-102490000D01*
X127129400Y-101990000D01*
G37*
%TD.AperFunction*%
%TD*%
D11*
%TO.P,REF\u002A\u002A,1*%
%TO.N,Net-(C1-Pad2)*%
X64240000Y-38320000D03*
%TD*%
D12*
%TO.P,C_Tune_1,1*%
%TO.N,GND*%
X102070042Y-101390000D03*
X97050042Y-101390000D03*
D13*
%TO.P,C_Tune_1,2*%
%TO.N,Net-(C5-Pad1)*%
X99570042Y-97890000D03*
%TD*%
D14*
%TO.P,J1,1,In*%
%TO.N,AC - 0*%
X81150042Y-100060000D03*
%TO.P,J1,2,Ext*%
%TO.N,GND*%
X83740042Y-97520000D03*
X78660042Y-97520000D03*
X83740042Y-102600000D03*
X78660042Y-102600000D03*
%TD*%
D15*
%TO.P,C24,1*%
%TO.N,GND*%
X149060127Y-89820000D03*
%TO.P,C24,2*%
%TO.N,Net-(C10-Pad1)*%
X149060127Y-87820000D03*
%TD*%
D11*
%TO.P,REF\u002A\u002A,1*%
%TO.N,GND*%
X64230000Y-91320000D03*
%TD*%
D15*
%TO.P,C14,1*%
%TO.N,Net-(C14-Pad1)*%
X182046849Y-41820000D03*
%TO.P,C14,2*%
%TO.N,Net-(C1-Pad2)*%
X182046849Y-39820000D03*
%TD*%
%TO.P,C16,1*%
%TO.N,GND*%
X66593319Y-89820000D03*
%TO.P,C16,2*%
%TO.N,Net-(C1-Pad1)*%
X66593319Y-87820000D03*
%TD*%
D12*
%TO.P,C_Match_1,1*%
%TO.N,AC - 0*%
X93084842Y-101390000D03*
X88064842Y-101390000D03*
D13*
%TO.P,C_Match_1,2*%
%TO.N,Net-(C5-Pad1)*%
X90584842Y-97890000D03*
%TD*%
D15*
%TO.P,C21,1*%
%TO.N,GND*%
X116073404Y-89820000D03*
%TO.P,C21,2*%
%TO.N,Net-(C21-Pad2)*%
X116073404Y-87820000D03*
%TD*%
%TO.P,C1,1*%
%TO.N,Net-(C1-Pad1)*%
X66593319Y-41820000D03*
%TO.P,C1,2*%
%TO.N,Net-(C1-Pad2)*%
X66593319Y-39820000D03*
%TD*%
%TO.P,C10,1*%
%TO.N,Net-(C10-Pad1)*%
X149060127Y-41820000D03*
%TO.P,C10,2*%
%TO.N,Net-(C1-Pad2)*%
X149060127Y-39820000D03*
%TD*%
%TO.P,C18,1*%
%TO.N,GND*%
X83086681Y-89820000D03*
%TO.P,C18,2*%
%TO.N,Net-(C18-Pad2)*%
X83086681Y-87820000D03*
%TD*%
D11*
%TO.P,REF\u002A\u002A,1*%
%TO.N,GND*%
X192660000Y-91320000D03*
%TD*%
D15*
%TO.P,C17,1*%
%TO.N,GND*%
X74840000Y-89820000D03*
%TO.P,C17,2*%
%TO.N,Net-(C17-Pad2)*%
X74840000Y-87820000D03*
%TD*%
%TO.P,C27,1*%
%TO.N,GND*%
X173800169Y-89820000D03*
%TO.P,C27,2*%
%TO.N,Net-(C13-Pad1)*%
X173800169Y-87820000D03*
%TD*%
%TO.P,C4,1*%
%TO.N,Net-(C19-Pad2)*%
X91333362Y-41820000D03*
%TO.P,C4,2*%
%TO.N,Net-(C1-Pad2)*%
X91333362Y-39820000D03*
%TD*%
D12*
%TO.P,C_Tune_2,1*%
%TO.N,GND*%
X135056765Y-101390000D03*
X130036765Y-101390000D03*
D13*
%TO.P,C_Tune_2,2*%
%TO.N,Net-(C8-Pad1)*%
X132556765Y-97890000D03*
%TD*%
D15*
%TO.P,C29,1*%
%TO.N,GND*%
X190293530Y-89820000D03*
%TO.P,C29,2*%
%TO.N,Net-(C15-Pad1)*%
X190293530Y-87820000D03*
%TD*%
%TO.P,C5,1*%
%TO.N,Net-(C5-Pad1)*%
X99580042Y-41820000D03*
%TO.P,C5,2*%
%TO.N,Net-(C1-Pad2)*%
X99580042Y-39820000D03*
%TD*%
D14*
%TO.P,J2,1,In*%
%TO.N,AC - 90*%
X150901965Y-100060000D03*
%TO.P,J2,2,Ext*%
%TO.N,GND*%
X153491965Y-97520000D03*
X148411965Y-97520000D03*
X153491965Y-102600000D03*
X148411965Y-102600000D03*
%TD*%
D15*
%TO.P,C8,1*%
%TO.N,Net-(C8-Pad1)*%
X132566765Y-41820000D03*
%TO.P,C8,2*%
%TO.N,Net-(C1-Pad2)*%
X132566765Y-39820000D03*
%TD*%
%TO.P,C22,1*%
%TO.N,GND*%
X124320084Y-89820000D03*
%TO.P,C22,2*%
%TO.N,Net-(C22-Pad2)*%
X124320084Y-87820000D03*
%TD*%
%TO.P,C9,1*%
%TO.N,Net-(C23-Pad2)*%
X140813446Y-41820000D03*
%TO.P,C9,2*%
%TO.N,Net-(C1-Pad2)*%
X140813446Y-39820000D03*
%TD*%
%TO.P,C3,1*%
%TO.N,Net-(C18-Pad2)*%
X83086681Y-41820000D03*
%TO.P,C3,2*%
%TO.N,Net-(C1-Pad2)*%
X83086681Y-39820000D03*
%TD*%
%TO.P,C25,1*%
%TO.N,GND*%
X157306807Y-89820000D03*
%TO.P,C25,2*%
%TO.N,Net-(C11-Pad1)*%
X157306807Y-87820000D03*
%TD*%
%TO.P,C19,1*%
%TO.N,GND*%
X91333362Y-89820000D03*
%TO.P,C19,2*%
%TO.N,Net-(C19-Pad2)*%
X91333362Y-87820000D03*
%TD*%
D16*
%TO.P,C_D1,1*%
%TO.N,Net-(C1-Pad2)*%
X114370000Y-38310000D03*
X117870000Y-38310000D03*
%TO.P,C_D1,2*%
%TO.N,Net-(C21-Pad2)*%
X116070000Y-42010000D03*
%TD*%
D11*
%TO.P,REF\u002A\u002A,1*%
%TO.N,Net-(C1-Pad2)*%
X192670000Y-38320000D03*
%TD*%
D15*
%TO.P,C13,1*%
%TO.N,Net-(C13-Pad1)*%
X173800169Y-41820000D03*
%TO.P,C13,2*%
%TO.N,Net-(C1-Pad2)*%
X173800169Y-39820000D03*
%TD*%
%TO.P,C12,1*%
%TO.N,Net-(C12-Pad1)*%
X165553488Y-41820000D03*
%TO.P,C12,2*%
%TO.N,Net-(C1-Pad2)*%
X165553488Y-39820000D03*
%TD*%
%TO.P,C15,1*%
%TO.N,Net-(C15-Pad1)*%
X190293530Y-41820000D03*
%TO.P,C15,2*%
%TO.N,Net-(C1-Pad2)*%
X190293530Y-39820000D03*
%TD*%
%TO.P,C26,1*%
%TO.N,GND*%
X165553488Y-89820000D03*
%TO.P,C26,2*%
%TO.N,Net-(C12-Pad1)*%
X165553488Y-87820000D03*
%TD*%
%TO.P,C28,1*%
%TO.N,GND*%
X182046849Y-89820000D03*
%TO.P,C28,2*%
%TO.N,Net-(C14-Pad1)*%
X182046849Y-87820000D03*
%TD*%
%TO.P,C7,1*%
%TO.N,Net-(C22-Pad2)*%
X124320084Y-41820000D03*
%TO.P,C7,2*%
%TO.N,Net-(C1-Pad2)*%
X124320084Y-39820000D03*
%TD*%
%TO.P,C23,1*%
%TO.N,GND*%
X140813446Y-89820000D03*
%TO.P,C23,2*%
%TO.N,Net-(C23-Pad2)*%
X140813446Y-87820000D03*
%TD*%
%TO.P,C11,1*%
%TO.N,Net-(C11-Pad1)*%
X157306807Y-41820000D03*
%TO.P,C11,2*%
%TO.N,Net-(C1-Pad2)*%
X157306807Y-39820000D03*
%TD*%
%TO.P,C20,1*%
%TO.N,GND*%
X107826723Y-89820000D03*
%TO.P,C20,2*%
%TO.N,Net-(C20-Pad2)*%
X107826723Y-87820000D03*
%TD*%
%TO.P,C2,1*%
%TO.N,Net-(C17-Pad2)*%
X74840000Y-41820000D03*
%TO.P,C2,2*%
%TO.N,Net-(C1-Pad2)*%
X74840000Y-39820000D03*
%TD*%
D12*
%TO.P,C_Match_2,1*%
%TO.N,AC - 90*%
X144041965Y-101390000D03*
X139021965Y-101390000D03*
D13*
%TO.P,C_Match_2,2*%
%TO.N,Net-(C8-Pad1)*%
X141541965Y-97890000D03*
%TD*%
D15*
%TO.P,C6,1*%
%TO.N,Net-(C20-Pad2)*%
X107826723Y-41820000D03*
%TO.P,C6,2*%
%TO.N,Net-(C1-Pad2)*%
X107826723Y-39820000D03*
%TD*%
D17*
%TO.N,Net-(C5-Pad1)*%
X99580042Y-87830000D03*
X99580042Y-94820000D03*
%TO.N,Net-(C8-Pad1)*%
X132566765Y-94820000D03*
X132566765Y-87830000D03*
%TD*%
M02*
