%TF.GenerationSoftware,KiCad,Pcbnew,9.0.4*%
%TF.CreationDate,2025-11-24T10:01:02-06:00*%
%TF.ProjectId,birdcage_rat_head,62697264-6361-4676-955f-7261745f6865,rev?*%
%TF.SameCoordinates,Original*%
%TF.FileFunction,Legend,Top*%
%TF.FilePolarity,Positive*%
%FSLAX46Y46*%
G04 Gerber Fmt 4.6, Leading zero omitted, Abs format (unit mm)*
G04 Created by KiCad (PCBNEW 9.0.4) date 2025-11-24 10:01:02*
%MOMM*%
%LPD*%
G01*
G04 APERTURE LIST*
%ADD10C,0.100000*%
%ADD11C,0.150000*%
G04 APERTURE END LIST*
D10*
X109042340Y-81798000D02*
G75*
G02*
X108997618Y-81798000I-22361J0D01*
G01*
X108997618Y-81798000D02*
G75*
G02*
X109042340Y-81798000I22361J0D01*
G01*
D11*
X107369580Y-102602857D02*
X107417200Y-102650476D01*
X107417200Y-102650476D02*
X107464819Y-102793333D01*
X107464819Y-102793333D02*
X107464819Y-102888571D01*
X107464819Y-102888571D02*
X107417200Y-103031428D01*
X107417200Y-103031428D02*
X107321961Y-103126666D01*
X107321961Y-103126666D02*
X107226723Y-103174285D01*
X107226723Y-103174285D02*
X107036247Y-103221904D01*
X107036247Y-103221904D02*
X106893390Y-103221904D01*
X106893390Y-103221904D02*
X106702914Y-103174285D01*
X106702914Y-103174285D02*
X106607676Y-103126666D01*
X106607676Y-103126666D02*
X106512438Y-103031428D01*
X106512438Y-103031428D02*
X106464819Y-102888571D01*
X106464819Y-102888571D02*
X106464819Y-102793333D01*
X106464819Y-102793333D02*
X106512438Y-102650476D01*
X106512438Y-102650476D02*
X106560057Y-102602857D01*
X107560057Y-102412381D02*
X107560057Y-101650476D01*
X106464819Y-101555237D02*
X106464819Y-100983809D01*
X107464819Y-101269523D02*
X106464819Y-101269523D01*
X106798152Y-100221904D02*
X107464819Y-100221904D01*
X106798152Y-100650475D02*
X107321961Y-100650475D01*
X107321961Y-100650475D02*
X107417200Y-100602856D01*
X107417200Y-100602856D02*
X107464819Y-100507618D01*
X107464819Y-100507618D02*
X107464819Y-100364761D01*
X107464819Y-100364761D02*
X107417200Y-100269523D01*
X107417200Y-100269523D02*
X107369580Y-100221904D01*
X106798152Y-99745713D02*
X107464819Y-99745713D01*
X106893390Y-99745713D02*
X106845771Y-99698094D01*
X106845771Y-99698094D02*
X106798152Y-99602856D01*
X106798152Y-99602856D02*
X106798152Y-99459999D01*
X106798152Y-99459999D02*
X106845771Y-99364761D01*
X106845771Y-99364761D02*
X106941009Y-99317142D01*
X106941009Y-99317142D02*
X107464819Y-99317142D01*
X107417200Y-98459999D02*
X107464819Y-98555237D01*
X107464819Y-98555237D02*
X107464819Y-98745713D01*
X107464819Y-98745713D02*
X107417200Y-98840951D01*
X107417200Y-98840951D02*
X107321961Y-98888570D01*
X107321961Y-98888570D02*
X106941009Y-98888570D01*
X106941009Y-98888570D02*
X106845771Y-98840951D01*
X106845771Y-98840951D02*
X106798152Y-98745713D01*
X106798152Y-98745713D02*
X106798152Y-98555237D01*
X106798152Y-98555237D02*
X106845771Y-98459999D01*
X106845771Y-98459999D02*
X106941009Y-98412380D01*
X106941009Y-98412380D02*
X107036247Y-98412380D01*
X107036247Y-98412380D02*
X107131485Y-98888570D01*
X107560057Y-98221904D02*
X107560057Y-97459999D01*
X107464819Y-96698094D02*
X107464819Y-97269522D01*
X107464819Y-96983808D02*
X106464819Y-96983808D01*
X106464819Y-96983808D02*
X106607676Y-97079046D01*
X106607676Y-97079046D02*
X106702914Y-97174284D01*
X106702914Y-97174284D02*
X106750533Y-97269522D01*
D10*
X86732622Y-99766666D02*
X86018337Y-99766666D01*
X86018337Y-99766666D02*
X85875480Y-99719047D01*
X85875480Y-99719047D02*
X85780242Y-99623809D01*
X85780242Y-99623809D02*
X85732622Y-99480952D01*
X85732622Y-99480952D02*
X85732622Y-99385714D01*
X85732622Y-100766666D02*
X85732622Y-100195238D01*
X85732622Y-100480952D02*
X86732622Y-100480952D01*
X86732622Y-100480952D02*
X86589765Y-100385714D01*
X86589765Y-100385714D02*
X86494527Y-100290476D01*
X86494527Y-100290476D02*
X86446908Y-100195238D01*
D11*
X146914612Y-85600857D02*
X146962232Y-85648476D01*
X146962232Y-85648476D02*
X147009851Y-85791333D01*
X147009851Y-85791333D02*
X147009851Y-85886571D01*
X147009851Y-85886571D02*
X146962232Y-86029428D01*
X146962232Y-86029428D02*
X146866993Y-86124666D01*
X146866993Y-86124666D02*
X146771755Y-86172285D01*
X146771755Y-86172285D02*
X146581279Y-86219904D01*
X146581279Y-86219904D02*
X146438422Y-86219904D01*
X146438422Y-86219904D02*
X146247946Y-86172285D01*
X146247946Y-86172285D02*
X146152708Y-86124666D01*
X146152708Y-86124666D02*
X146057470Y-86029428D01*
X146057470Y-86029428D02*
X146009851Y-85886571D01*
X146009851Y-85886571D02*
X146009851Y-85791333D01*
X146009851Y-85791333D02*
X146057470Y-85648476D01*
X146057470Y-85648476D02*
X146105089Y-85600857D01*
X146105089Y-85219904D02*
X146057470Y-85172285D01*
X146057470Y-85172285D02*
X146009851Y-85077047D01*
X146009851Y-85077047D02*
X146009851Y-84838952D01*
X146009851Y-84838952D02*
X146057470Y-84743714D01*
X146057470Y-84743714D02*
X146105089Y-84696095D01*
X146105089Y-84696095D02*
X146200327Y-84648476D01*
X146200327Y-84648476D02*
X146295565Y-84648476D01*
X146295565Y-84648476D02*
X146438422Y-84696095D01*
X146438422Y-84696095D02*
X147009851Y-85267523D01*
X147009851Y-85267523D02*
X147009851Y-84648476D01*
X146343184Y-83791333D02*
X147009851Y-83791333D01*
X145962232Y-84029428D02*
X146676517Y-84267523D01*
X146676517Y-84267523D02*
X146676517Y-83648476D01*
X179845584Y-45880856D02*
X179893204Y-45928475D01*
X179893204Y-45928475D02*
X179940823Y-46071332D01*
X179940823Y-46071332D02*
X179940823Y-46166570D01*
X179940823Y-46166570D02*
X179893204Y-46309427D01*
X179893204Y-46309427D02*
X179797965Y-46404665D01*
X179797965Y-46404665D02*
X179702727Y-46452284D01*
X179702727Y-46452284D02*
X179512251Y-46499903D01*
X179512251Y-46499903D02*
X179369394Y-46499903D01*
X179369394Y-46499903D02*
X179178918Y-46452284D01*
X179178918Y-46452284D02*
X179083680Y-46404665D01*
X179083680Y-46404665D02*
X178988442Y-46309427D01*
X178988442Y-46309427D02*
X178940823Y-46166570D01*
X178940823Y-46166570D02*
X178940823Y-46071332D01*
X178940823Y-46071332D02*
X178988442Y-45928475D01*
X178988442Y-45928475D02*
X179036061Y-45880856D01*
X179940823Y-44928475D02*
X179940823Y-45499903D01*
X179940823Y-45214189D02*
X178940823Y-45214189D01*
X178940823Y-45214189D02*
X179083680Y-45309427D01*
X179083680Y-45309427D02*
X179178918Y-45404665D01*
X179178918Y-45404665D02*
X179226537Y-45499903D01*
X179274156Y-44071332D02*
X179940823Y-44071332D01*
X178893204Y-44309427D02*
X179607489Y-44547522D01*
X179607489Y-44547522D02*
X179607489Y-43928475D01*
D10*
X64811304Y-85502285D02*
X64849400Y-85540381D01*
X64849400Y-85540381D02*
X64887495Y-85654666D01*
X64887495Y-85654666D02*
X64887495Y-85730857D01*
X64887495Y-85730857D02*
X64849400Y-85845143D01*
X64849400Y-85845143D02*
X64773209Y-85921333D01*
X64773209Y-85921333D02*
X64697019Y-85959428D01*
X64697019Y-85959428D02*
X64544638Y-85997524D01*
X64544638Y-85997524D02*
X64430352Y-85997524D01*
X64430352Y-85997524D02*
X64277971Y-85959428D01*
X64277971Y-85959428D02*
X64201780Y-85921333D01*
X64201780Y-85921333D02*
X64125590Y-85845143D01*
X64125590Y-85845143D02*
X64087495Y-85730857D01*
X64087495Y-85730857D02*
X64087495Y-85654666D01*
X64087495Y-85654666D02*
X64125590Y-85540381D01*
X64125590Y-85540381D02*
X64163685Y-85502285D01*
X64887495Y-84740381D02*
X64887495Y-85197524D01*
X64887495Y-84968952D02*
X64087495Y-84968952D01*
X64087495Y-84968952D02*
X64201780Y-85045143D01*
X64201780Y-85045143D02*
X64277971Y-85121333D01*
X64277971Y-85121333D02*
X64316066Y-85197524D01*
X64087495Y-84054666D02*
X64087495Y-84207047D01*
X64087495Y-84207047D02*
X64125590Y-84283238D01*
X64125590Y-84283238D02*
X64163685Y-84321333D01*
X64163685Y-84321333D02*
X64277971Y-84397523D01*
X64277971Y-84397523D02*
X64430352Y-84435619D01*
X64430352Y-84435619D02*
X64735114Y-84435619D01*
X64735114Y-84435619D02*
X64811304Y-84397523D01*
X64811304Y-84397523D02*
X64849400Y-84359428D01*
X64849400Y-84359428D02*
X64887495Y-84283238D01*
X64887495Y-84283238D02*
X64887495Y-84130857D01*
X64887495Y-84130857D02*
X64849400Y-84054666D01*
X64849400Y-84054666D02*
X64811304Y-84016571D01*
X64811304Y-84016571D02*
X64735114Y-83978476D01*
X64735114Y-83978476D02*
X64544638Y-83978476D01*
X64544638Y-83978476D02*
X64468447Y-84016571D01*
X64468447Y-84016571D02*
X64430352Y-84054666D01*
X64430352Y-84054666D02*
X64392257Y-84130857D01*
X64392257Y-84130857D02*
X64392257Y-84283238D01*
X64392257Y-84283238D02*
X64430352Y-84359428D01*
X64430352Y-84359428D02*
X64468447Y-84397523D01*
X64468447Y-84397523D02*
X64544638Y-84435619D01*
D11*
X89840951Y-94219580D02*
X89793332Y-94267200D01*
X89793332Y-94267200D02*
X89650475Y-94314819D01*
X89650475Y-94314819D02*
X89555237Y-94314819D01*
X89555237Y-94314819D02*
X89412380Y-94267200D01*
X89412380Y-94267200D02*
X89317142Y-94171961D01*
X89317142Y-94171961D02*
X89269523Y-94076723D01*
X89269523Y-94076723D02*
X89221904Y-93886247D01*
X89221904Y-93886247D02*
X89221904Y-93743390D01*
X89221904Y-93743390D02*
X89269523Y-93552914D01*
X89269523Y-93552914D02*
X89317142Y-93457676D01*
X89317142Y-93457676D02*
X89412380Y-93362438D01*
X89412380Y-93362438D02*
X89555237Y-93314819D01*
X89555237Y-93314819D02*
X89650475Y-93314819D01*
X89650475Y-93314819D02*
X89793332Y-93362438D01*
X89793332Y-93362438D02*
X89840951Y-93410057D01*
X90031428Y-94410057D02*
X90793332Y-94410057D01*
X91031428Y-94314819D02*
X91031428Y-93314819D01*
X91031428Y-93314819D02*
X91364761Y-94029104D01*
X91364761Y-94029104D02*
X91698094Y-93314819D01*
X91698094Y-93314819D02*
X91698094Y-94314819D01*
X92602856Y-94314819D02*
X92602856Y-93791009D01*
X92602856Y-93791009D02*
X92555237Y-93695771D01*
X92555237Y-93695771D02*
X92459999Y-93648152D01*
X92459999Y-93648152D02*
X92269523Y-93648152D01*
X92269523Y-93648152D02*
X92174285Y-93695771D01*
X92602856Y-94267200D02*
X92507618Y-94314819D01*
X92507618Y-94314819D02*
X92269523Y-94314819D01*
X92269523Y-94314819D02*
X92174285Y-94267200D01*
X92174285Y-94267200D02*
X92126666Y-94171961D01*
X92126666Y-94171961D02*
X92126666Y-94076723D01*
X92126666Y-94076723D02*
X92174285Y-93981485D01*
X92174285Y-93981485D02*
X92269523Y-93933866D01*
X92269523Y-93933866D02*
X92507618Y-93933866D01*
X92507618Y-93933866D02*
X92602856Y-93886247D01*
X92936190Y-93648152D02*
X93317142Y-93648152D01*
X93079047Y-93314819D02*
X93079047Y-94171961D01*
X93079047Y-94171961D02*
X93126666Y-94267200D01*
X93126666Y-94267200D02*
X93221904Y-94314819D01*
X93221904Y-94314819D02*
X93317142Y-94314819D01*
X94079047Y-94267200D02*
X93983809Y-94314819D01*
X93983809Y-94314819D02*
X93793333Y-94314819D01*
X93793333Y-94314819D02*
X93698095Y-94267200D01*
X93698095Y-94267200D02*
X93650476Y-94219580D01*
X93650476Y-94219580D02*
X93602857Y-94124342D01*
X93602857Y-94124342D02*
X93602857Y-93838628D01*
X93602857Y-93838628D02*
X93650476Y-93743390D01*
X93650476Y-93743390D02*
X93698095Y-93695771D01*
X93698095Y-93695771D02*
X93793333Y-93648152D01*
X93793333Y-93648152D02*
X93983809Y-93648152D01*
X93983809Y-93648152D02*
X94079047Y-93695771D01*
X94507619Y-94314819D02*
X94507619Y-93314819D01*
X94936190Y-94314819D02*
X94936190Y-93791009D01*
X94936190Y-93791009D02*
X94888571Y-93695771D01*
X94888571Y-93695771D02*
X94793333Y-93648152D01*
X94793333Y-93648152D02*
X94650476Y-93648152D01*
X94650476Y-93648152D02*
X94555238Y-93695771D01*
X94555238Y-93695771D02*
X94507619Y-93743390D01*
X95174286Y-94410057D02*
X95936190Y-94410057D01*
X96698095Y-94314819D02*
X96126667Y-94314819D01*
X96412381Y-94314819D02*
X96412381Y-93314819D01*
X96412381Y-93314819D02*
X96317143Y-93457676D01*
X96317143Y-93457676D02*
X96221905Y-93552914D01*
X96221905Y-93552914D02*
X96126667Y-93600533D01*
X113713640Y-85600857D02*
X113761260Y-85648476D01*
X113761260Y-85648476D02*
X113808879Y-85791333D01*
X113808879Y-85791333D02*
X113808879Y-85886571D01*
X113808879Y-85886571D02*
X113761260Y-86029428D01*
X113761260Y-86029428D02*
X113666021Y-86124666D01*
X113666021Y-86124666D02*
X113570783Y-86172285D01*
X113570783Y-86172285D02*
X113380307Y-86219904D01*
X113380307Y-86219904D02*
X113237450Y-86219904D01*
X113237450Y-86219904D02*
X113046974Y-86172285D01*
X113046974Y-86172285D02*
X112951736Y-86124666D01*
X112951736Y-86124666D02*
X112856498Y-86029428D01*
X112856498Y-86029428D02*
X112808879Y-85886571D01*
X112808879Y-85886571D02*
X112808879Y-85791333D01*
X112808879Y-85791333D02*
X112856498Y-85648476D01*
X112856498Y-85648476D02*
X112904117Y-85600857D01*
X112904117Y-85219904D02*
X112856498Y-85172285D01*
X112856498Y-85172285D02*
X112808879Y-85077047D01*
X112808879Y-85077047D02*
X112808879Y-84838952D01*
X112808879Y-84838952D02*
X112856498Y-84743714D01*
X112856498Y-84743714D02*
X112904117Y-84696095D01*
X112904117Y-84696095D02*
X112999355Y-84648476D01*
X112999355Y-84648476D02*
X113094593Y-84648476D01*
X113094593Y-84648476D02*
X113237450Y-84696095D01*
X113237450Y-84696095D02*
X113808879Y-85267523D01*
X113808879Y-85267523D02*
X113808879Y-84648476D01*
X113808879Y-83696095D02*
X113808879Y-84267523D01*
X113808879Y-83981809D02*
X112808879Y-83981809D01*
X112808879Y-83981809D02*
X112951736Y-84077047D01*
X112951736Y-84077047D02*
X113046974Y-84172285D01*
X113046974Y-84172285D02*
X113094593Y-84267523D01*
D10*
X64821304Y-45371331D02*
X64859400Y-45409427D01*
X64859400Y-45409427D02*
X64897495Y-45523712D01*
X64897495Y-45523712D02*
X64897495Y-45599903D01*
X64897495Y-45599903D02*
X64859400Y-45714189D01*
X64859400Y-45714189D02*
X64783209Y-45790379D01*
X64783209Y-45790379D02*
X64707019Y-45828474D01*
X64707019Y-45828474D02*
X64554638Y-45866570D01*
X64554638Y-45866570D02*
X64440352Y-45866570D01*
X64440352Y-45866570D02*
X64287971Y-45828474D01*
X64287971Y-45828474D02*
X64211780Y-45790379D01*
X64211780Y-45790379D02*
X64135590Y-45714189D01*
X64135590Y-45714189D02*
X64097495Y-45599903D01*
X64097495Y-45599903D02*
X64097495Y-45523712D01*
X64097495Y-45523712D02*
X64135590Y-45409427D01*
X64135590Y-45409427D02*
X64173685Y-45371331D01*
X64897495Y-44609427D02*
X64897495Y-45066570D01*
X64897495Y-44837998D02*
X64097495Y-44837998D01*
X64097495Y-44837998D02*
X64211780Y-44914189D01*
X64211780Y-44914189D02*
X64287971Y-44990379D01*
X64287971Y-44990379D02*
X64326066Y-45066570D01*
D11*
X147114612Y-45880856D02*
X147162232Y-45928475D01*
X147162232Y-45928475D02*
X147209851Y-46071332D01*
X147209851Y-46071332D02*
X147209851Y-46166570D01*
X147209851Y-46166570D02*
X147162232Y-46309427D01*
X147162232Y-46309427D02*
X147066993Y-46404665D01*
X147066993Y-46404665D02*
X146971755Y-46452284D01*
X146971755Y-46452284D02*
X146781279Y-46499903D01*
X146781279Y-46499903D02*
X146638422Y-46499903D01*
X146638422Y-46499903D02*
X146447946Y-46452284D01*
X146447946Y-46452284D02*
X146352708Y-46404665D01*
X146352708Y-46404665D02*
X146257470Y-46309427D01*
X146257470Y-46309427D02*
X146209851Y-46166570D01*
X146209851Y-46166570D02*
X146209851Y-46071332D01*
X146209851Y-46071332D02*
X146257470Y-45928475D01*
X146257470Y-45928475D02*
X146305089Y-45880856D01*
X147209851Y-44928475D02*
X147209851Y-45499903D01*
X147209851Y-45214189D02*
X146209851Y-45214189D01*
X146209851Y-45214189D02*
X146352708Y-45309427D01*
X146352708Y-45309427D02*
X146447946Y-45404665D01*
X146447946Y-45404665D02*
X146495565Y-45499903D01*
X146209851Y-44309427D02*
X146209851Y-44214189D01*
X146209851Y-44214189D02*
X146257470Y-44118951D01*
X146257470Y-44118951D02*
X146305089Y-44071332D01*
X146305089Y-44071332D02*
X146400327Y-44023713D01*
X146400327Y-44023713D02*
X146590803Y-43976094D01*
X146590803Y-43976094D02*
X146828898Y-43976094D01*
X146828898Y-43976094D02*
X147019374Y-44023713D01*
X147019374Y-44023713D02*
X147114612Y-44071332D01*
X147114612Y-44071332D02*
X147162232Y-44118951D01*
X147162232Y-44118951D02*
X147209851Y-44214189D01*
X147209851Y-44214189D02*
X147209851Y-44309427D01*
X147209851Y-44309427D02*
X147162232Y-44404665D01*
X147162232Y-44404665D02*
X147114612Y-44452284D01*
X147114612Y-44452284D02*
X147019374Y-44499903D01*
X147019374Y-44499903D02*
X146828898Y-44547522D01*
X146828898Y-44547522D02*
X146590803Y-44547522D01*
X146590803Y-44547522D02*
X146400327Y-44499903D01*
X146400327Y-44499903D02*
X146305089Y-44452284D01*
X146305089Y-44452284D02*
X146257470Y-44404665D01*
X146257470Y-44404665D02*
X146209851Y-44309427D01*
X81022667Y-85600857D02*
X81070287Y-85648476D01*
X81070287Y-85648476D02*
X81117906Y-85791333D01*
X81117906Y-85791333D02*
X81117906Y-85886571D01*
X81117906Y-85886571D02*
X81070287Y-86029428D01*
X81070287Y-86029428D02*
X80975048Y-86124666D01*
X80975048Y-86124666D02*
X80879810Y-86172285D01*
X80879810Y-86172285D02*
X80689334Y-86219904D01*
X80689334Y-86219904D02*
X80546477Y-86219904D01*
X80546477Y-86219904D02*
X80356001Y-86172285D01*
X80356001Y-86172285D02*
X80260763Y-86124666D01*
X80260763Y-86124666D02*
X80165525Y-86029428D01*
X80165525Y-86029428D02*
X80117906Y-85886571D01*
X80117906Y-85886571D02*
X80117906Y-85791333D01*
X80117906Y-85791333D02*
X80165525Y-85648476D01*
X80165525Y-85648476D02*
X80213144Y-85600857D01*
X81117906Y-84648476D02*
X81117906Y-85219904D01*
X81117906Y-84934190D02*
X80117906Y-84934190D01*
X80117906Y-84934190D02*
X80260763Y-85029428D01*
X80260763Y-85029428D02*
X80356001Y-85124666D01*
X80356001Y-85124666D02*
X80403620Y-85219904D01*
X80546477Y-84077047D02*
X80498858Y-84172285D01*
X80498858Y-84172285D02*
X80451239Y-84219904D01*
X80451239Y-84219904D02*
X80356001Y-84267523D01*
X80356001Y-84267523D02*
X80308382Y-84267523D01*
X80308382Y-84267523D02*
X80213144Y-84219904D01*
X80213144Y-84219904D02*
X80165525Y-84172285D01*
X80165525Y-84172285D02*
X80117906Y-84077047D01*
X80117906Y-84077047D02*
X80117906Y-83886571D01*
X80117906Y-83886571D02*
X80165525Y-83791333D01*
X80165525Y-83791333D02*
X80213144Y-83743714D01*
X80213144Y-83743714D02*
X80308382Y-83696095D01*
X80308382Y-83696095D02*
X80356001Y-83696095D01*
X80356001Y-83696095D02*
X80451239Y-83743714D01*
X80451239Y-83743714D02*
X80498858Y-83791333D01*
X80498858Y-83791333D02*
X80546477Y-83886571D01*
X80546477Y-83886571D02*
X80546477Y-84077047D01*
X80546477Y-84077047D02*
X80594096Y-84172285D01*
X80594096Y-84172285D02*
X80641715Y-84219904D01*
X80641715Y-84219904D02*
X80736953Y-84267523D01*
X80736953Y-84267523D02*
X80927429Y-84267523D01*
X80927429Y-84267523D02*
X81022667Y-84219904D01*
X81022667Y-84219904D02*
X81070287Y-84172285D01*
X81070287Y-84172285D02*
X81117906Y-84077047D01*
X81117906Y-84077047D02*
X81117906Y-83886571D01*
X81117906Y-83886571D02*
X81070287Y-83791333D01*
X81070287Y-83791333D02*
X81022667Y-83743714D01*
X81022667Y-83743714D02*
X80927429Y-83696095D01*
X80927429Y-83696095D02*
X80736953Y-83696095D01*
X80736953Y-83696095D02*
X80641715Y-83743714D01*
X80641715Y-83743714D02*
X80594096Y-83791333D01*
X80594096Y-83791333D02*
X80546477Y-83886571D01*
X72677424Y-85600857D02*
X72725044Y-85648476D01*
X72725044Y-85648476D02*
X72772663Y-85791333D01*
X72772663Y-85791333D02*
X72772663Y-85886571D01*
X72772663Y-85886571D02*
X72725044Y-86029428D01*
X72725044Y-86029428D02*
X72629805Y-86124666D01*
X72629805Y-86124666D02*
X72534567Y-86172285D01*
X72534567Y-86172285D02*
X72344091Y-86219904D01*
X72344091Y-86219904D02*
X72201234Y-86219904D01*
X72201234Y-86219904D02*
X72010758Y-86172285D01*
X72010758Y-86172285D02*
X71915520Y-86124666D01*
X71915520Y-86124666D02*
X71820282Y-86029428D01*
X71820282Y-86029428D02*
X71772663Y-85886571D01*
X71772663Y-85886571D02*
X71772663Y-85791333D01*
X71772663Y-85791333D02*
X71820282Y-85648476D01*
X71820282Y-85648476D02*
X71867901Y-85600857D01*
X72772663Y-84648476D02*
X72772663Y-85219904D01*
X72772663Y-84934190D02*
X71772663Y-84934190D01*
X71772663Y-84934190D02*
X71915520Y-85029428D01*
X71915520Y-85029428D02*
X72010758Y-85124666D01*
X72010758Y-85124666D02*
X72058377Y-85219904D01*
X71772663Y-84315142D02*
X71772663Y-83648476D01*
X71772663Y-83648476D02*
X72772663Y-84077047D01*
X171760341Y-85580857D02*
X171807961Y-85628476D01*
X171807961Y-85628476D02*
X171855580Y-85771333D01*
X171855580Y-85771333D02*
X171855580Y-85866571D01*
X171855580Y-85866571D02*
X171807961Y-86009428D01*
X171807961Y-86009428D02*
X171712722Y-86104666D01*
X171712722Y-86104666D02*
X171617484Y-86152285D01*
X171617484Y-86152285D02*
X171427008Y-86199904D01*
X171427008Y-86199904D02*
X171284151Y-86199904D01*
X171284151Y-86199904D02*
X171093675Y-86152285D01*
X171093675Y-86152285D02*
X170998437Y-86104666D01*
X170998437Y-86104666D02*
X170903199Y-86009428D01*
X170903199Y-86009428D02*
X170855580Y-85866571D01*
X170855580Y-85866571D02*
X170855580Y-85771333D01*
X170855580Y-85771333D02*
X170903199Y-85628476D01*
X170903199Y-85628476D02*
X170950818Y-85580857D01*
X170950818Y-85199904D02*
X170903199Y-85152285D01*
X170903199Y-85152285D02*
X170855580Y-85057047D01*
X170855580Y-85057047D02*
X170855580Y-84818952D01*
X170855580Y-84818952D02*
X170903199Y-84723714D01*
X170903199Y-84723714D02*
X170950818Y-84676095D01*
X170950818Y-84676095D02*
X171046056Y-84628476D01*
X171046056Y-84628476D02*
X171141294Y-84628476D01*
X171141294Y-84628476D02*
X171284151Y-84676095D01*
X171284151Y-84676095D02*
X171855580Y-85247523D01*
X171855580Y-85247523D02*
X171855580Y-84628476D01*
X170855580Y-84295142D02*
X170855580Y-83628476D01*
X170855580Y-83628476D02*
X171855580Y-84057047D01*
X89257910Y-45404666D02*
X89305530Y-45452285D01*
X89305530Y-45452285D02*
X89353149Y-45595142D01*
X89353149Y-45595142D02*
X89353149Y-45690380D01*
X89353149Y-45690380D02*
X89305530Y-45833237D01*
X89305530Y-45833237D02*
X89210291Y-45928475D01*
X89210291Y-45928475D02*
X89115053Y-45976094D01*
X89115053Y-45976094D02*
X88924577Y-46023713D01*
X88924577Y-46023713D02*
X88781720Y-46023713D01*
X88781720Y-46023713D02*
X88591244Y-45976094D01*
X88591244Y-45976094D02*
X88496006Y-45928475D01*
X88496006Y-45928475D02*
X88400768Y-45833237D01*
X88400768Y-45833237D02*
X88353149Y-45690380D01*
X88353149Y-45690380D02*
X88353149Y-45595142D01*
X88353149Y-45595142D02*
X88400768Y-45452285D01*
X88400768Y-45452285D02*
X88448387Y-45404666D01*
X88686482Y-44547523D02*
X89353149Y-44547523D01*
X88305530Y-44785618D02*
X89019815Y-45023713D01*
X89019815Y-45023713D02*
X89019815Y-44404666D01*
X125359580Y-101652857D02*
X125407200Y-101700476D01*
X125407200Y-101700476D02*
X125454819Y-101843333D01*
X125454819Y-101843333D02*
X125454819Y-101938571D01*
X125454819Y-101938571D02*
X125407200Y-102081428D01*
X125407200Y-102081428D02*
X125311961Y-102176666D01*
X125311961Y-102176666D02*
X125216723Y-102224285D01*
X125216723Y-102224285D02*
X125026247Y-102271904D01*
X125026247Y-102271904D02*
X124883390Y-102271904D01*
X124883390Y-102271904D02*
X124692914Y-102224285D01*
X124692914Y-102224285D02*
X124597676Y-102176666D01*
X124597676Y-102176666D02*
X124502438Y-102081428D01*
X124502438Y-102081428D02*
X124454819Y-101938571D01*
X124454819Y-101938571D02*
X124454819Y-101843333D01*
X124454819Y-101843333D02*
X124502438Y-101700476D01*
X124502438Y-101700476D02*
X124550057Y-101652857D01*
X125550057Y-101462381D02*
X125550057Y-100700476D01*
X124454819Y-100605237D02*
X124454819Y-100033809D01*
X125454819Y-100319523D02*
X124454819Y-100319523D01*
X124788152Y-99271904D02*
X125454819Y-99271904D01*
X124788152Y-99700475D02*
X125311961Y-99700475D01*
X125311961Y-99700475D02*
X125407200Y-99652856D01*
X125407200Y-99652856D02*
X125454819Y-99557618D01*
X125454819Y-99557618D02*
X125454819Y-99414761D01*
X125454819Y-99414761D02*
X125407200Y-99319523D01*
X125407200Y-99319523D02*
X125359580Y-99271904D01*
X124788152Y-98795713D02*
X125454819Y-98795713D01*
X124883390Y-98795713D02*
X124835771Y-98748094D01*
X124835771Y-98748094D02*
X124788152Y-98652856D01*
X124788152Y-98652856D02*
X124788152Y-98509999D01*
X124788152Y-98509999D02*
X124835771Y-98414761D01*
X124835771Y-98414761D02*
X124931009Y-98367142D01*
X124931009Y-98367142D02*
X125454819Y-98367142D01*
X125407200Y-97509999D02*
X125454819Y-97605237D01*
X125454819Y-97605237D02*
X125454819Y-97795713D01*
X125454819Y-97795713D02*
X125407200Y-97890951D01*
X125407200Y-97890951D02*
X125311961Y-97938570D01*
X125311961Y-97938570D02*
X124931009Y-97938570D01*
X124931009Y-97938570D02*
X124835771Y-97890951D01*
X124835771Y-97890951D02*
X124788152Y-97795713D01*
X124788152Y-97795713D02*
X124788152Y-97605237D01*
X124788152Y-97605237D02*
X124835771Y-97509999D01*
X124835771Y-97509999D02*
X124931009Y-97462380D01*
X124931009Y-97462380D02*
X125026247Y-97462380D01*
X125026247Y-97462380D02*
X125121485Y-97938570D01*
X125550057Y-97271904D02*
X125550057Y-96509999D01*
X124550057Y-96319522D02*
X124502438Y-96271903D01*
X124502438Y-96271903D02*
X124454819Y-96176665D01*
X124454819Y-96176665D02*
X124454819Y-95938570D01*
X124454819Y-95938570D02*
X124502438Y-95843332D01*
X124502438Y-95843332D02*
X124550057Y-95795713D01*
X124550057Y-95795713D02*
X124645295Y-95748094D01*
X124645295Y-95748094D02*
X124740533Y-95748094D01*
X124740533Y-95748094D02*
X124883390Y-95795713D01*
X124883390Y-95795713D02*
X125454819Y-96367141D01*
X125454819Y-96367141D02*
X125454819Y-95748094D01*
X188150827Y-85600857D02*
X188198447Y-85648476D01*
X188198447Y-85648476D02*
X188246066Y-85791333D01*
X188246066Y-85791333D02*
X188246066Y-85886571D01*
X188246066Y-85886571D02*
X188198447Y-86029428D01*
X188198447Y-86029428D02*
X188103208Y-86124666D01*
X188103208Y-86124666D02*
X188007970Y-86172285D01*
X188007970Y-86172285D02*
X187817494Y-86219904D01*
X187817494Y-86219904D02*
X187674637Y-86219904D01*
X187674637Y-86219904D02*
X187484161Y-86172285D01*
X187484161Y-86172285D02*
X187388923Y-86124666D01*
X187388923Y-86124666D02*
X187293685Y-86029428D01*
X187293685Y-86029428D02*
X187246066Y-85886571D01*
X187246066Y-85886571D02*
X187246066Y-85791333D01*
X187246066Y-85791333D02*
X187293685Y-85648476D01*
X187293685Y-85648476D02*
X187341304Y-85600857D01*
X187341304Y-85219904D02*
X187293685Y-85172285D01*
X187293685Y-85172285D02*
X187246066Y-85077047D01*
X187246066Y-85077047D02*
X187246066Y-84838952D01*
X187246066Y-84838952D02*
X187293685Y-84743714D01*
X187293685Y-84743714D02*
X187341304Y-84696095D01*
X187341304Y-84696095D02*
X187436542Y-84648476D01*
X187436542Y-84648476D02*
X187531780Y-84648476D01*
X187531780Y-84648476D02*
X187674637Y-84696095D01*
X187674637Y-84696095D02*
X188246066Y-85267523D01*
X188246066Y-85267523D02*
X188246066Y-84648476D01*
X188246066Y-84172285D02*
X188246066Y-83981809D01*
X188246066Y-83981809D02*
X188198447Y-83886571D01*
X188198447Y-83886571D02*
X188150827Y-83838952D01*
X188150827Y-83838952D02*
X188007970Y-83743714D01*
X188007970Y-83743714D02*
X187817494Y-83696095D01*
X187817494Y-83696095D02*
X187436542Y-83696095D01*
X187436542Y-83696095D02*
X187341304Y-83743714D01*
X187341304Y-83743714D02*
X187293685Y-83791333D01*
X187293685Y-83791333D02*
X187246066Y-83886571D01*
X187246066Y-83886571D02*
X187246066Y-84077047D01*
X187246066Y-84077047D02*
X187293685Y-84172285D01*
X187293685Y-84172285D02*
X187341304Y-84219904D01*
X187341304Y-84219904D02*
X187436542Y-84267523D01*
X187436542Y-84267523D02*
X187674637Y-84267523D01*
X187674637Y-84267523D02*
X187769875Y-84219904D01*
X187769875Y-84219904D02*
X187817494Y-84172285D01*
X187817494Y-84172285D02*
X187865113Y-84077047D01*
X187865113Y-84077047D02*
X187865113Y-83886571D01*
X187865113Y-83886571D02*
X187817494Y-83791333D01*
X187817494Y-83791333D02*
X187769875Y-83743714D01*
X187769875Y-83743714D02*
X187674637Y-83696095D01*
X97363153Y-45404666D02*
X97410773Y-45452285D01*
X97410773Y-45452285D02*
X97458392Y-45595142D01*
X97458392Y-45595142D02*
X97458392Y-45690380D01*
X97458392Y-45690380D02*
X97410773Y-45833237D01*
X97410773Y-45833237D02*
X97315534Y-45928475D01*
X97315534Y-45928475D02*
X97220296Y-45976094D01*
X97220296Y-45976094D02*
X97029820Y-46023713D01*
X97029820Y-46023713D02*
X96886963Y-46023713D01*
X96886963Y-46023713D02*
X96696487Y-45976094D01*
X96696487Y-45976094D02*
X96601249Y-45928475D01*
X96601249Y-45928475D02*
X96506011Y-45833237D01*
X96506011Y-45833237D02*
X96458392Y-45690380D01*
X96458392Y-45690380D02*
X96458392Y-45595142D01*
X96458392Y-45595142D02*
X96506011Y-45452285D01*
X96506011Y-45452285D02*
X96553630Y-45404666D01*
X96458392Y-44499904D02*
X96458392Y-44976094D01*
X96458392Y-44976094D02*
X96934582Y-45023713D01*
X96934582Y-45023713D02*
X96886963Y-44976094D01*
X96886963Y-44976094D02*
X96839344Y-44880856D01*
X96839344Y-44880856D02*
X96839344Y-44642761D01*
X96839344Y-44642761D02*
X96886963Y-44547523D01*
X96886963Y-44547523D02*
X96934582Y-44499904D01*
X96934582Y-44499904D02*
X97029820Y-44452285D01*
X97029820Y-44452285D02*
X97267915Y-44452285D01*
X97267915Y-44452285D02*
X97363153Y-44499904D01*
X97363153Y-44499904D02*
X97410773Y-44547523D01*
X97410773Y-44547523D02*
X97458392Y-44642761D01*
X97458392Y-44642761D02*
X97458392Y-44880856D01*
X97458392Y-44880856D02*
X97410773Y-44976094D01*
X97410773Y-44976094D02*
X97363153Y-45023713D01*
D10*
X156932325Y-99776666D02*
X156218040Y-99776666D01*
X156218040Y-99776666D02*
X156075183Y-99729047D01*
X156075183Y-99729047D02*
X155979945Y-99633809D01*
X155979945Y-99633809D02*
X155932325Y-99490952D01*
X155932325Y-99490952D02*
X155932325Y-99395714D01*
X156837087Y-100205238D02*
X156884706Y-100252857D01*
X156884706Y-100252857D02*
X156932325Y-100348095D01*
X156932325Y-100348095D02*
X156932325Y-100586190D01*
X156932325Y-100586190D02*
X156884706Y-100681428D01*
X156884706Y-100681428D02*
X156837087Y-100729047D01*
X156837087Y-100729047D02*
X156741849Y-100776666D01*
X156741849Y-100776666D02*
X156646611Y-100776666D01*
X156646611Y-100776666D02*
X156503754Y-100729047D01*
X156503754Y-100729047D02*
X155932325Y-100157619D01*
X155932325Y-100157619D02*
X155932325Y-100776666D01*
D11*
X130374125Y-45404666D02*
X130421745Y-45452285D01*
X130421745Y-45452285D02*
X130469364Y-45595142D01*
X130469364Y-45595142D02*
X130469364Y-45690380D01*
X130469364Y-45690380D02*
X130421745Y-45833237D01*
X130421745Y-45833237D02*
X130326506Y-45928475D01*
X130326506Y-45928475D02*
X130231268Y-45976094D01*
X130231268Y-45976094D02*
X130040792Y-46023713D01*
X130040792Y-46023713D02*
X129897935Y-46023713D01*
X129897935Y-46023713D02*
X129707459Y-45976094D01*
X129707459Y-45976094D02*
X129612221Y-45928475D01*
X129612221Y-45928475D02*
X129516983Y-45833237D01*
X129516983Y-45833237D02*
X129469364Y-45690380D01*
X129469364Y-45690380D02*
X129469364Y-45595142D01*
X129469364Y-45595142D02*
X129516983Y-45452285D01*
X129516983Y-45452285D02*
X129564602Y-45404666D01*
X129897935Y-44833237D02*
X129850316Y-44928475D01*
X129850316Y-44928475D02*
X129802697Y-44976094D01*
X129802697Y-44976094D02*
X129707459Y-45023713D01*
X129707459Y-45023713D02*
X129659840Y-45023713D01*
X129659840Y-45023713D02*
X129564602Y-44976094D01*
X129564602Y-44976094D02*
X129516983Y-44928475D01*
X129516983Y-44928475D02*
X129469364Y-44833237D01*
X129469364Y-44833237D02*
X129469364Y-44642761D01*
X129469364Y-44642761D02*
X129516983Y-44547523D01*
X129516983Y-44547523D02*
X129564602Y-44499904D01*
X129564602Y-44499904D02*
X129659840Y-44452285D01*
X129659840Y-44452285D02*
X129707459Y-44452285D01*
X129707459Y-44452285D02*
X129802697Y-44499904D01*
X129802697Y-44499904D02*
X129850316Y-44547523D01*
X129850316Y-44547523D02*
X129897935Y-44642761D01*
X129897935Y-44642761D02*
X129897935Y-44833237D01*
X129897935Y-44833237D02*
X129945554Y-44928475D01*
X129945554Y-44928475D02*
X129993173Y-44976094D01*
X129993173Y-44976094D02*
X130088411Y-45023713D01*
X130088411Y-45023713D02*
X130278887Y-45023713D01*
X130278887Y-45023713D02*
X130374125Y-44976094D01*
X130374125Y-44976094D02*
X130421745Y-44928475D01*
X130421745Y-44928475D02*
X130469364Y-44833237D01*
X130469364Y-44833237D02*
X130469364Y-44642761D01*
X130469364Y-44642761D02*
X130421745Y-44547523D01*
X130421745Y-44547523D02*
X130374125Y-44499904D01*
X130374125Y-44499904D02*
X130278887Y-44452285D01*
X130278887Y-44452285D02*
X130088411Y-44452285D01*
X130088411Y-44452285D02*
X129993173Y-44499904D01*
X129993173Y-44499904D02*
X129945554Y-44547523D01*
X129945554Y-44547523D02*
X129897935Y-44642761D01*
X122188882Y-85600857D02*
X122236502Y-85648476D01*
X122236502Y-85648476D02*
X122284121Y-85791333D01*
X122284121Y-85791333D02*
X122284121Y-85886571D01*
X122284121Y-85886571D02*
X122236502Y-86029428D01*
X122236502Y-86029428D02*
X122141263Y-86124666D01*
X122141263Y-86124666D02*
X122046025Y-86172285D01*
X122046025Y-86172285D02*
X121855549Y-86219904D01*
X121855549Y-86219904D02*
X121712692Y-86219904D01*
X121712692Y-86219904D02*
X121522216Y-86172285D01*
X121522216Y-86172285D02*
X121426978Y-86124666D01*
X121426978Y-86124666D02*
X121331740Y-86029428D01*
X121331740Y-86029428D02*
X121284121Y-85886571D01*
X121284121Y-85886571D02*
X121284121Y-85791333D01*
X121284121Y-85791333D02*
X121331740Y-85648476D01*
X121331740Y-85648476D02*
X121379359Y-85600857D01*
X121379359Y-85219904D02*
X121331740Y-85172285D01*
X121331740Y-85172285D02*
X121284121Y-85077047D01*
X121284121Y-85077047D02*
X121284121Y-84838952D01*
X121284121Y-84838952D02*
X121331740Y-84743714D01*
X121331740Y-84743714D02*
X121379359Y-84696095D01*
X121379359Y-84696095D02*
X121474597Y-84648476D01*
X121474597Y-84648476D02*
X121569835Y-84648476D01*
X121569835Y-84648476D02*
X121712692Y-84696095D01*
X121712692Y-84696095D02*
X122284121Y-85267523D01*
X122284121Y-85267523D02*
X122284121Y-84648476D01*
X121379359Y-84267523D02*
X121331740Y-84219904D01*
X121331740Y-84219904D02*
X121284121Y-84124666D01*
X121284121Y-84124666D02*
X121284121Y-83886571D01*
X121284121Y-83886571D02*
X121331740Y-83791333D01*
X121331740Y-83791333D02*
X121379359Y-83743714D01*
X121379359Y-83743714D02*
X121474597Y-83696095D01*
X121474597Y-83696095D02*
X121569835Y-83696095D01*
X121569835Y-83696095D02*
X121712692Y-83743714D01*
X121712692Y-83743714D02*
X122284121Y-84315142D01*
X122284121Y-84315142D02*
X122284121Y-83696095D01*
X138749369Y-45404666D02*
X138796989Y-45452285D01*
X138796989Y-45452285D02*
X138844608Y-45595142D01*
X138844608Y-45595142D02*
X138844608Y-45690380D01*
X138844608Y-45690380D02*
X138796989Y-45833237D01*
X138796989Y-45833237D02*
X138701750Y-45928475D01*
X138701750Y-45928475D02*
X138606512Y-45976094D01*
X138606512Y-45976094D02*
X138416036Y-46023713D01*
X138416036Y-46023713D02*
X138273179Y-46023713D01*
X138273179Y-46023713D02*
X138082703Y-45976094D01*
X138082703Y-45976094D02*
X137987465Y-45928475D01*
X137987465Y-45928475D02*
X137892227Y-45833237D01*
X137892227Y-45833237D02*
X137844608Y-45690380D01*
X137844608Y-45690380D02*
X137844608Y-45595142D01*
X137844608Y-45595142D02*
X137892227Y-45452285D01*
X137892227Y-45452285D02*
X137939846Y-45404666D01*
X138844608Y-44928475D02*
X138844608Y-44737999D01*
X138844608Y-44737999D02*
X138796989Y-44642761D01*
X138796989Y-44642761D02*
X138749369Y-44595142D01*
X138749369Y-44595142D02*
X138606512Y-44499904D01*
X138606512Y-44499904D02*
X138416036Y-44452285D01*
X138416036Y-44452285D02*
X138035084Y-44452285D01*
X138035084Y-44452285D02*
X137939846Y-44499904D01*
X137939846Y-44499904D02*
X137892227Y-44547523D01*
X137892227Y-44547523D02*
X137844608Y-44642761D01*
X137844608Y-44642761D02*
X137844608Y-44833237D01*
X137844608Y-44833237D02*
X137892227Y-44928475D01*
X137892227Y-44928475D02*
X137939846Y-44976094D01*
X137939846Y-44976094D02*
X138035084Y-45023713D01*
X138035084Y-45023713D02*
X138273179Y-45023713D01*
X138273179Y-45023713D02*
X138368417Y-44976094D01*
X138368417Y-44976094D02*
X138416036Y-44928475D01*
X138416036Y-44928475D02*
X138463655Y-44833237D01*
X138463655Y-44833237D02*
X138463655Y-44642761D01*
X138463655Y-44642761D02*
X138416036Y-44547523D01*
X138416036Y-44547523D02*
X138368417Y-44499904D01*
X138368417Y-44499904D02*
X138273179Y-44452285D01*
X80852667Y-45404666D02*
X80900287Y-45452285D01*
X80900287Y-45452285D02*
X80947906Y-45595142D01*
X80947906Y-45595142D02*
X80947906Y-45690380D01*
X80947906Y-45690380D02*
X80900287Y-45833237D01*
X80900287Y-45833237D02*
X80805048Y-45928475D01*
X80805048Y-45928475D02*
X80709810Y-45976094D01*
X80709810Y-45976094D02*
X80519334Y-46023713D01*
X80519334Y-46023713D02*
X80376477Y-46023713D01*
X80376477Y-46023713D02*
X80186001Y-45976094D01*
X80186001Y-45976094D02*
X80090763Y-45928475D01*
X80090763Y-45928475D02*
X79995525Y-45833237D01*
X79995525Y-45833237D02*
X79947906Y-45690380D01*
X79947906Y-45690380D02*
X79947906Y-45595142D01*
X79947906Y-45595142D02*
X79995525Y-45452285D01*
X79995525Y-45452285D02*
X80043144Y-45404666D01*
X79947906Y-45071332D02*
X79947906Y-44452285D01*
X79947906Y-44452285D02*
X80328858Y-44785618D01*
X80328858Y-44785618D02*
X80328858Y-44642761D01*
X80328858Y-44642761D02*
X80376477Y-44547523D01*
X80376477Y-44547523D02*
X80424096Y-44499904D01*
X80424096Y-44499904D02*
X80519334Y-44452285D01*
X80519334Y-44452285D02*
X80757429Y-44452285D01*
X80757429Y-44452285D02*
X80852667Y-44499904D01*
X80852667Y-44499904D02*
X80900287Y-44547523D01*
X80900287Y-44547523D02*
X80947906Y-44642761D01*
X80947906Y-44642761D02*
X80947906Y-44928475D01*
X80947906Y-44928475D02*
X80900287Y-45023713D01*
X80900287Y-45023713D02*
X80852667Y-45071332D01*
X155049855Y-85600857D02*
X155097475Y-85648476D01*
X155097475Y-85648476D02*
X155145094Y-85791333D01*
X155145094Y-85791333D02*
X155145094Y-85886571D01*
X155145094Y-85886571D02*
X155097475Y-86029428D01*
X155097475Y-86029428D02*
X155002236Y-86124666D01*
X155002236Y-86124666D02*
X154906998Y-86172285D01*
X154906998Y-86172285D02*
X154716522Y-86219904D01*
X154716522Y-86219904D02*
X154573665Y-86219904D01*
X154573665Y-86219904D02*
X154383189Y-86172285D01*
X154383189Y-86172285D02*
X154287951Y-86124666D01*
X154287951Y-86124666D02*
X154192713Y-86029428D01*
X154192713Y-86029428D02*
X154145094Y-85886571D01*
X154145094Y-85886571D02*
X154145094Y-85791333D01*
X154145094Y-85791333D02*
X154192713Y-85648476D01*
X154192713Y-85648476D02*
X154240332Y-85600857D01*
X154240332Y-85219904D02*
X154192713Y-85172285D01*
X154192713Y-85172285D02*
X154145094Y-85077047D01*
X154145094Y-85077047D02*
X154145094Y-84838952D01*
X154145094Y-84838952D02*
X154192713Y-84743714D01*
X154192713Y-84743714D02*
X154240332Y-84696095D01*
X154240332Y-84696095D02*
X154335570Y-84648476D01*
X154335570Y-84648476D02*
X154430808Y-84648476D01*
X154430808Y-84648476D02*
X154573665Y-84696095D01*
X154573665Y-84696095D02*
X155145094Y-85267523D01*
X155145094Y-85267523D02*
X155145094Y-84648476D01*
X154145094Y-83743714D02*
X154145094Y-84219904D01*
X154145094Y-84219904D02*
X154621284Y-84267523D01*
X154621284Y-84267523D02*
X154573665Y-84219904D01*
X154573665Y-84219904D02*
X154526046Y-84124666D01*
X154526046Y-84124666D02*
X154526046Y-83886571D01*
X154526046Y-83886571D02*
X154573665Y-83791333D01*
X154573665Y-83791333D02*
X154621284Y-83743714D01*
X154621284Y-83743714D02*
X154716522Y-83696095D01*
X154716522Y-83696095D02*
X154954617Y-83696095D01*
X154954617Y-83696095D02*
X155049855Y-83743714D01*
X155049855Y-83743714D02*
X155097475Y-83791333D01*
X155097475Y-83791333D02*
X155145094Y-83886571D01*
X155145094Y-83886571D02*
X155145094Y-84124666D01*
X155145094Y-84124666D02*
X155097475Y-84219904D01*
X155097475Y-84219904D02*
X155049855Y-84267523D01*
X89247910Y-85600857D02*
X89295530Y-85648476D01*
X89295530Y-85648476D02*
X89343149Y-85791333D01*
X89343149Y-85791333D02*
X89343149Y-85886571D01*
X89343149Y-85886571D02*
X89295530Y-86029428D01*
X89295530Y-86029428D02*
X89200291Y-86124666D01*
X89200291Y-86124666D02*
X89105053Y-86172285D01*
X89105053Y-86172285D02*
X88914577Y-86219904D01*
X88914577Y-86219904D02*
X88771720Y-86219904D01*
X88771720Y-86219904D02*
X88581244Y-86172285D01*
X88581244Y-86172285D02*
X88486006Y-86124666D01*
X88486006Y-86124666D02*
X88390768Y-86029428D01*
X88390768Y-86029428D02*
X88343149Y-85886571D01*
X88343149Y-85886571D02*
X88343149Y-85791333D01*
X88343149Y-85791333D02*
X88390768Y-85648476D01*
X88390768Y-85648476D02*
X88438387Y-85600857D01*
X89343149Y-84648476D02*
X89343149Y-85219904D01*
X89343149Y-84934190D02*
X88343149Y-84934190D01*
X88343149Y-84934190D02*
X88486006Y-85029428D01*
X88486006Y-85029428D02*
X88581244Y-85124666D01*
X88581244Y-85124666D02*
X88628863Y-85219904D01*
X89343149Y-84172285D02*
X89343149Y-83981809D01*
X89343149Y-83981809D02*
X89295530Y-83886571D01*
X89295530Y-83886571D02*
X89247910Y-83838952D01*
X89247910Y-83838952D02*
X89105053Y-83743714D01*
X89105053Y-83743714D02*
X88914577Y-83696095D01*
X88914577Y-83696095D02*
X88533625Y-83696095D01*
X88533625Y-83696095D02*
X88438387Y-83743714D01*
X88438387Y-83743714D02*
X88390768Y-83791333D01*
X88390768Y-83791333D02*
X88343149Y-83886571D01*
X88343149Y-83886571D02*
X88343149Y-84077047D01*
X88343149Y-84077047D02*
X88390768Y-84172285D01*
X88390768Y-84172285D02*
X88438387Y-84219904D01*
X88438387Y-84219904D02*
X88533625Y-84267523D01*
X88533625Y-84267523D02*
X88771720Y-84267523D01*
X88771720Y-84267523D02*
X88866958Y-84219904D01*
X88866958Y-84219904D02*
X88914577Y-84172285D01*
X88914577Y-84172285D02*
X88962196Y-84077047D01*
X88962196Y-84077047D02*
X88962196Y-83886571D01*
X88962196Y-83886571D02*
X88914577Y-83791333D01*
X88914577Y-83791333D02*
X88866958Y-83743714D01*
X88866958Y-83743714D02*
X88771720Y-83696095D01*
D10*
X119948704Y-43168094D02*
X119986800Y-43206190D01*
X119986800Y-43206190D02*
X120024895Y-43320475D01*
X120024895Y-43320475D02*
X120024895Y-43396666D01*
X120024895Y-43396666D02*
X119986800Y-43510952D01*
X119986800Y-43510952D02*
X119910609Y-43587142D01*
X119910609Y-43587142D02*
X119834419Y-43625237D01*
X119834419Y-43625237D02*
X119682038Y-43663333D01*
X119682038Y-43663333D02*
X119567752Y-43663333D01*
X119567752Y-43663333D02*
X119415371Y-43625237D01*
X119415371Y-43625237D02*
X119339180Y-43587142D01*
X119339180Y-43587142D02*
X119262990Y-43510952D01*
X119262990Y-43510952D02*
X119224895Y-43396666D01*
X119224895Y-43396666D02*
X119224895Y-43320475D01*
X119224895Y-43320475D02*
X119262990Y-43206190D01*
X119262990Y-43206190D02*
X119301085Y-43168094D01*
X120101085Y-43015714D02*
X120101085Y-42406190D01*
X120024895Y-42215713D02*
X119224895Y-42215713D01*
X119224895Y-42215713D02*
X119224895Y-42025237D01*
X119224895Y-42025237D02*
X119262990Y-41910951D01*
X119262990Y-41910951D02*
X119339180Y-41834761D01*
X119339180Y-41834761D02*
X119415371Y-41796666D01*
X119415371Y-41796666D02*
X119567752Y-41758570D01*
X119567752Y-41758570D02*
X119682038Y-41758570D01*
X119682038Y-41758570D02*
X119834419Y-41796666D01*
X119834419Y-41796666D02*
X119910609Y-41834761D01*
X119910609Y-41834761D02*
X119986800Y-41910951D01*
X119986800Y-41910951D02*
X120024895Y-42025237D01*
X120024895Y-42025237D02*
X120024895Y-42215713D01*
X120024895Y-40996666D02*
X120024895Y-41453809D01*
X120024895Y-41225237D02*
X119224895Y-41225237D01*
X119224895Y-41225237D02*
X119339180Y-41301428D01*
X119339180Y-41301428D02*
X119415371Y-41377618D01*
X119415371Y-41377618D02*
X119453466Y-41453809D01*
D11*
X171740341Y-45870857D02*
X171787961Y-45918476D01*
X171787961Y-45918476D02*
X171835580Y-46061333D01*
X171835580Y-46061333D02*
X171835580Y-46156571D01*
X171835580Y-46156571D02*
X171787961Y-46299428D01*
X171787961Y-46299428D02*
X171692722Y-46394666D01*
X171692722Y-46394666D02*
X171597484Y-46442285D01*
X171597484Y-46442285D02*
X171407008Y-46489904D01*
X171407008Y-46489904D02*
X171264151Y-46489904D01*
X171264151Y-46489904D02*
X171073675Y-46442285D01*
X171073675Y-46442285D02*
X170978437Y-46394666D01*
X170978437Y-46394666D02*
X170883199Y-46299428D01*
X170883199Y-46299428D02*
X170835580Y-46156571D01*
X170835580Y-46156571D02*
X170835580Y-46061333D01*
X170835580Y-46061333D02*
X170883199Y-45918476D01*
X170883199Y-45918476D02*
X170930818Y-45870857D01*
X171835580Y-44918476D02*
X171835580Y-45489904D01*
X171835580Y-45204190D02*
X170835580Y-45204190D01*
X170835580Y-45204190D02*
X170978437Y-45299428D01*
X170978437Y-45299428D02*
X171073675Y-45394666D01*
X171073675Y-45394666D02*
X171121294Y-45489904D01*
X170835580Y-44585142D02*
X170835580Y-43966095D01*
X170835580Y-43966095D02*
X171216532Y-44299428D01*
X171216532Y-44299428D02*
X171216532Y-44156571D01*
X171216532Y-44156571D02*
X171264151Y-44061333D01*
X171264151Y-44061333D02*
X171311770Y-44013714D01*
X171311770Y-44013714D02*
X171407008Y-43966095D01*
X171407008Y-43966095D02*
X171645103Y-43966095D01*
X171645103Y-43966095D02*
X171740341Y-44013714D01*
X171740341Y-44013714D02*
X171787961Y-44061333D01*
X171787961Y-44061333D02*
X171835580Y-44156571D01*
X171835580Y-44156571D02*
X171835580Y-44442285D01*
X171835580Y-44442285D02*
X171787961Y-44537523D01*
X171787961Y-44537523D02*
X171740341Y-44585142D01*
X163525098Y-45880856D02*
X163572718Y-45928475D01*
X163572718Y-45928475D02*
X163620337Y-46071332D01*
X163620337Y-46071332D02*
X163620337Y-46166570D01*
X163620337Y-46166570D02*
X163572718Y-46309427D01*
X163572718Y-46309427D02*
X163477479Y-46404665D01*
X163477479Y-46404665D02*
X163382241Y-46452284D01*
X163382241Y-46452284D02*
X163191765Y-46499903D01*
X163191765Y-46499903D02*
X163048908Y-46499903D01*
X163048908Y-46499903D02*
X162858432Y-46452284D01*
X162858432Y-46452284D02*
X162763194Y-46404665D01*
X162763194Y-46404665D02*
X162667956Y-46309427D01*
X162667956Y-46309427D02*
X162620337Y-46166570D01*
X162620337Y-46166570D02*
X162620337Y-46071332D01*
X162620337Y-46071332D02*
X162667956Y-45928475D01*
X162667956Y-45928475D02*
X162715575Y-45880856D01*
X163620337Y-44928475D02*
X163620337Y-45499903D01*
X163620337Y-45214189D02*
X162620337Y-45214189D01*
X162620337Y-45214189D02*
X162763194Y-45309427D01*
X162763194Y-45309427D02*
X162858432Y-45404665D01*
X162858432Y-45404665D02*
X162906051Y-45499903D01*
X162715575Y-44547522D02*
X162667956Y-44499903D01*
X162667956Y-44499903D02*
X162620337Y-44404665D01*
X162620337Y-44404665D02*
X162620337Y-44166570D01*
X162620337Y-44166570D02*
X162667956Y-44071332D01*
X162667956Y-44071332D02*
X162715575Y-44023713D01*
X162715575Y-44023713D02*
X162810813Y-43976094D01*
X162810813Y-43976094D02*
X162906051Y-43976094D01*
X162906051Y-43976094D02*
X163048908Y-44023713D01*
X163048908Y-44023713D02*
X163620337Y-44595141D01*
X163620337Y-44595141D02*
X163620337Y-43976094D01*
X187960827Y-45132857D02*
X188008447Y-45180476D01*
X188008447Y-45180476D02*
X188056066Y-45323333D01*
X188056066Y-45323333D02*
X188056066Y-45418571D01*
X188056066Y-45418571D02*
X188008447Y-45561428D01*
X188008447Y-45561428D02*
X187913208Y-45656666D01*
X187913208Y-45656666D02*
X187817970Y-45704285D01*
X187817970Y-45704285D02*
X187627494Y-45751904D01*
X187627494Y-45751904D02*
X187484637Y-45751904D01*
X187484637Y-45751904D02*
X187294161Y-45704285D01*
X187294161Y-45704285D02*
X187198923Y-45656666D01*
X187198923Y-45656666D02*
X187103685Y-45561428D01*
X187103685Y-45561428D02*
X187056066Y-45418571D01*
X187056066Y-45418571D02*
X187056066Y-45323333D01*
X187056066Y-45323333D02*
X187103685Y-45180476D01*
X187103685Y-45180476D02*
X187151304Y-45132857D01*
X188056066Y-44180476D02*
X188056066Y-44751904D01*
X188056066Y-44466190D02*
X187056066Y-44466190D01*
X187056066Y-44466190D02*
X187198923Y-44561428D01*
X187198923Y-44561428D02*
X187294161Y-44656666D01*
X187294161Y-44656666D02*
X187341780Y-44751904D01*
X187056066Y-43275714D02*
X187056066Y-43751904D01*
X187056066Y-43751904D02*
X187532256Y-43799523D01*
X187532256Y-43799523D02*
X187484637Y-43751904D01*
X187484637Y-43751904D02*
X187437018Y-43656666D01*
X187437018Y-43656666D02*
X187437018Y-43418571D01*
X187437018Y-43418571D02*
X187484637Y-43323333D01*
X187484637Y-43323333D02*
X187532256Y-43275714D01*
X187532256Y-43275714D02*
X187627494Y-43228095D01*
X187627494Y-43228095D02*
X187865589Y-43228095D01*
X187865589Y-43228095D02*
X187960827Y-43275714D01*
X187960827Y-43275714D02*
X188008447Y-43323333D01*
X188008447Y-43323333D02*
X188056066Y-43418571D01*
X188056066Y-43418571D02*
X188056066Y-43656666D01*
X188056066Y-43656666D02*
X188008447Y-43751904D01*
X188008447Y-43751904D02*
X187960827Y-43799523D01*
X163455098Y-85600857D02*
X163502718Y-85648476D01*
X163502718Y-85648476D02*
X163550337Y-85791333D01*
X163550337Y-85791333D02*
X163550337Y-85886571D01*
X163550337Y-85886571D02*
X163502718Y-86029428D01*
X163502718Y-86029428D02*
X163407479Y-86124666D01*
X163407479Y-86124666D02*
X163312241Y-86172285D01*
X163312241Y-86172285D02*
X163121765Y-86219904D01*
X163121765Y-86219904D02*
X162978908Y-86219904D01*
X162978908Y-86219904D02*
X162788432Y-86172285D01*
X162788432Y-86172285D02*
X162693194Y-86124666D01*
X162693194Y-86124666D02*
X162597956Y-86029428D01*
X162597956Y-86029428D02*
X162550337Y-85886571D01*
X162550337Y-85886571D02*
X162550337Y-85791333D01*
X162550337Y-85791333D02*
X162597956Y-85648476D01*
X162597956Y-85648476D02*
X162645575Y-85600857D01*
X162645575Y-85219904D02*
X162597956Y-85172285D01*
X162597956Y-85172285D02*
X162550337Y-85077047D01*
X162550337Y-85077047D02*
X162550337Y-84838952D01*
X162550337Y-84838952D02*
X162597956Y-84743714D01*
X162597956Y-84743714D02*
X162645575Y-84696095D01*
X162645575Y-84696095D02*
X162740813Y-84648476D01*
X162740813Y-84648476D02*
X162836051Y-84648476D01*
X162836051Y-84648476D02*
X162978908Y-84696095D01*
X162978908Y-84696095D02*
X163550337Y-85267523D01*
X163550337Y-85267523D02*
X163550337Y-84648476D01*
X162550337Y-83791333D02*
X162550337Y-83981809D01*
X162550337Y-83981809D02*
X162597956Y-84077047D01*
X162597956Y-84077047D02*
X162645575Y-84124666D01*
X162645575Y-84124666D02*
X162788432Y-84219904D01*
X162788432Y-84219904D02*
X162978908Y-84267523D01*
X162978908Y-84267523D02*
X163359860Y-84267523D01*
X163359860Y-84267523D02*
X163455098Y-84219904D01*
X163455098Y-84219904D02*
X163502718Y-84172285D01*
X163502718Y-84172285D02*
X163550337Y-84077047D01*
X163550337Y-84077047D02*
X163550337Y-83886571D01*
X163550337Y-83886571D02*
X163502718Y-83791333D01*
X163502718Y-83791333D02*
X163455098Y-83743714D01*
X163455098Y-83743714D02*
X163359860Y-83696095D01*
X163359860Y-83696095D02*
X163121765Y-83696095D01*
X163121765Y-83696095D02*
X163026527Y-83743714D01*
X163026527Y-83743714D02*
X162978908Y-83791333D01*
X162978908Y-83791333D02*
X162931289Y-83886571D01*
X162931289Y-83886571D02*
X162931289Y-84077047D01*
X162931289Y-84077047D02*
X162978908Y-84172285D01*
X162978908Y-84172285D02*
X163026527Y-84219904D01*
X163026527Y-84219904D02*
X163121765Y-84267523D01*
X179955584Y-85580857D02*
X180003204Y-85628476D01*
X180003204Y-85628476D02*
X180050823Y-85771333D01*
X180050823Y-85771333D02*
X180050823Y-85866571D01*
X180050823Y-85866571D02*
X180003204Y-86009428D01*
X180003204Y-86009428D02*
X179907965Y-86104666D01*
X179907965Y-86104666D02*
X179812727Y-86152285D01*
X179812727Y-86152285D02*
X179622251Y-86199904D01*
X179622251Y-86199904D02*
X179479394Y-86199904D01*
X179479394Y-86199904D02*
X179288918Y-86152285D01*
X179288918Y-86152285D02*
X179193680Y-86104666D01*
X179193680Y-86104666D02*
X179098442Y-86009428D01*
X179098442Y-86009428D02*
X179050823Y-85866571D01*
X179050823Y-85866571D02*
X179050823Y-85771333D01*
X179050823Y-85771333D02*
X179098442Y-85628476D01*
X179098442Y-85628476D02*
X179146061Y-85580857D01*
X179146061Y-85199904D02*
X179098442Y-85152285D01*
X179098442Y-85152285D02*
X179050823Y-85057047D01*
X179050823Y-85057047D02*
X179050823Y-84818952D01*
X179050823Y-84818952D02*
X179098442Y-84723714D01*
X179098442Y-84723714D02*
X179146061Y-84676095D01*
X179146061Y-84676095D02*
X179241299Y-84628476D01*
X179241299Y-84628476D02*
X179336537Y-84628476D01*
X179336537Y-84628476D02*
X179479394Y-84676095D01*
X179479394Y-84676095D02*
X180050823Y-85247523D01*
X180050823Y-85247523D02*
X180050823Y-84628476D01*
X179479394Y-84057047D02*
X179431775Y-84152285D01*
X179431775Y-84152285D02*
X179384156Y-84199904D01*
X179384156Y-84199904D02*
X179288918Y-84247523D01*
X179288918Y-84247523D02*
X179241299Y-84247523D01*
X179241299Y-84247523D02*
X179146061Y-84199904D01*
X179146061Y-84199904D02*
X179098442Y-84152285D01*
X179098442Y-84152285D02*
X179050823Y-84057047D01*
X179050823Y-84057047D02*
X179050823Y-83866571D01*
X179050823Y-83866571D02*
X179098442Y-83771333D01*
X179098442Y-83771333D02*
X179146061Y-83723714D01*
X179146061Y-83723714D02*
X179241299Y-83676095D01*
X179241299Y-83676095D02*
X179288918Y-83676095D01*
X179288918Y-83676095D02*
X179384156Y-83723714D01*
X179384156Y-83723714D02*
X179431775Y-83771333D01*
X179431775Y-83771333D02*
X179479394Y-83866571D01*
X179479394Y-83866571D02*
X179479394Y-84057047D01*
X179479394Y-84057047D02*
X179527013Y-84152285D01*
X179527013Y-84152285D02*
X179574632Y-84199904D01*
X179574632Y-84199904D02*
X179669870Y-84247523D01*
X179669870Y-84247523D02*
X179860346Y-84247523D01*
X179860346Y-84247523D02*
X179955584Y-84199904D01*
X179955584Y-84199904D02*
X180003204Y-84152285D01*
X180003204Y-84152285D02*
X180050823Y-84057047D01*
X180050823Y-84057047D02*
X180050823Y-83866571D01*
X180050823Y-83866571D02*
X180003204Y-83771333D01*
X180003204Y-83771333D02*
X179955584Y-83723714D01*
X179955584Y-83723714D02*
X179860346Y-83676095D01*
X179860346Y-83676095D02*
X179669870Y-83676095D01*
X179669870Y-83676095D02*
X179574632Y-83723714D01*
X179574632Y-83723714D02*
X179527013Y-83771333D01*
X179527013Y-83771333D02*
X179479394Y-83866571D01*
X122048882Y-45404666D02*
X122096502Y-45452285D01*
X122096502Y-45452285D02*
X122144121Y-45595142D01*
X122144121Y-45595142D02*
X122144121Y-45690380D01*
X122144121Y-45690380D02*
X122096502Y-45833237D01*
X122096502Y-45833237D02*
X122001263Y-45928475D01*
X122001263Y-45928475D02*
X121906025Y-45976094D01*
X121906025Y-45976094D02*
X121715549Y-46023713D01*
X121715549Y-46023713D02*
X121572692Y-46023713D01*
X121572692Y-46023713D02*
X121382216Y-45976094D01*
X121382216Y-45976094D02*
X121286978Y-45928475D01*
X121286978Y-45928475D02*
X121191740Y-45833237D01*
X121191740Y-45833237D02*
X121144121Y-45690380D01*
X121144121Y-45690380D02*
X121144121Y-45595142D01*
X121144121Y-45595142D02*
X121191740Y-45452285D01*
X121191740Y-45452285D02*
X121239359Y-45404666D01*
X121144121Y-45071332D02*
X121144121Y-44404666D01*
X121144121Y-44404666D02*
X122144121Y-44833237D01*
X138779369Y-85600857D02*
X138826989Y-85648476D01*
X138826989Y-85648476D02*
X138874608Y-85791333D01*
X138874608Y-85791333D02*
X138874608Y-85886571D01*
X138874608Y-85886571D02*
X138826989Y-86029428D01*
X138826989Y-86029428D02*
X138731750Y-86124666D01*
X138731750Y-86124666D02*
X138636512Y-86172285D01*
X138636512Y-86172285D02*
X138446036Y-86219904D01*
X138446036Y-86219904D02*
X138303179Y-86219904D01*
X138303179Y-86219904D02*
X138112703Y-86172285D01*
X138112703Y-86172285D02*
X138017465Y-86124666D01*
X138017465Y-86124666D02*
X137922227Y-86029428D01*
X137922227Y-86029428D02*
X137874608Y-85886571D01*
X137874608Y-85886571D02*
X137874608Y-85791333D01*
X137874608Y-85791333D02*
X137922227Y-85648476D01*
X137922227Y-85648476D02*
X137969846Y-85600857D01*
X137969846Y-85219904D02*
X137922227Y-85172285D01*
X137922227Y-85172285D02*
X137874608Y-85077047D01*
X137874608Y-85077047D02*
X137874608Y-84838952D01*
X137874608Y-84838952D02*
X137922227Y-84743714D01*
X137922227Y-84743714D02*
X137969846Y-84696095D01*
X137969846Y-84696095D02*
X138065084Y-84648476D01*
X138065084Y-84648476D02*
X138160322Y-84648476D01*
X138160322Y-84648476D02*
X138303179Y-84696095D01*
X138303179Y-84696095D02*
X138874608Y-85267523D01*
X138874608Y-85267523D02*
X138874608Y-84648476D01*
X137874608Y-84315142D02*
X137874608Y-83696095D01*
X137874608Y-83696095D02*
X138255560Y-84029428D01*
X138255560Y-84029428D02*
X138255560Y-83886571D01*
X138255560Y-83886571D02*
X138303179Y-83791333D01*
X138303179Y-83791333D02*
X138350798Y-83743714D01*
X138350798Y-83743714D02*
X138446036Y-83696095D01*
X138446036Y-83696095D02*
X138684131Y-83696095D01*
X138684131Y-83696095D02*
X138779369Y-83743714D01*
X138779369Y-83743714D02*
X138826989Y-83791333D01*
X138826989Y-83791333D02*
X138874608Y-83886571D01*
X138874608Y-83886571D02*
X138874608Y-84172285D01*
X138874608Y-84172285D02*
X138826989Y-84267523D01*
X138826989Y-84267523D02*
X138779369Y-84315142D01*
X155149855Y-45880856D02*
X155197475Y-45928475D01*
X155197475Y-45928475D02*
X155245094Y-46071332D01*
X155245094Y-46071332D02*
X155245094Y-46166570D01*
X155245094Y-46166570D02*
X155197475Y-46309427D01*
X155197475Y-46309427D02*
X155102236Y-46404665D01*
X155102236Y-46404665D02*
X155006998Y-46452284D01*
X155006998Y-46452284D02*
X154816522Y-46499903D01*
X154816522Y-46499903D02*
X154673665Y-46499903D01*
X154673665Y-46499903D02*
X154483189Y-46452284D01*
X154483189Y-46452284D02*
X154387951Y-46404665D01*
X154387951Y-46404665D02*
X154292713Y-46309427D01*
X154292713Y-46309427D02*
X154245094Y-46166570D01*
X154245094Y-46166570D02*
X154245094Y-46071332D01*
X154245094Y-46071332D02*
X154292713Y-45928475D01*
X154292713Y-45928475D02*
X154340332Y-45880856D01*
X155245094Y-44928475D02*
X155245094Y-45499903D01*
X155245094Y-45214189D02*
X154245094Y-45214189D01*
X154245094Y-45214189D02*
X154387951Y-45309427D01*
X154387951Y-45309427D02*
X154483189Y-45404665D01*
X154483189Y-45404665D02*
X154530808Y-45499903D01*
X155245094Y-43976094D02*
X155245094Y-44547522D01*
X155245094Y-44261808D02*
X154245094Y-44261808D01*
X154245094Y-44261808D02*
X154387951Y-44357046D01*
X154387951Y-44357046D02*
X154483189Y-44452284D01*
X154483189Y-44452284D02*
X154530808Y-44547522D01*
X105938396Y-85600857D02*
X105986016Y-85648476D01*
X105986016Y-85648476D02*
X106033635Y-85791333D01*
X106033635Y-85791333D02*
X106033635Y-85886571D01*
X106033635Y-85886571D02*
X105986016Y-86029428D01*
X105986016Y-86029428D02*
X105890777Y-86124666D01*
X105890777Y-86124666D02*
X105795539Y-86172285D01*
X105795539Y-86172285D02*
X105605063Y-86219904D01*
X105605063Y-86219904D02*
X105462206Y-86219904D01*
X105462206Y-86219904D02*
X105271730Y-86172285D01*
X105271730Y-86172285D02*
X105176492Y-86124666D01*
X105176492Y-86124666D02*
X105081254Y-86029428D01*
X105081254Y-86029428D02*
X105033635Y-85886571D01*
X105033635Y-85886571D02*
X105033635Y-85791333D01*
X105033635Y-85791333D02*
X105081254Y-85648476D01*
X105081254Y-85648476D02*
X105128873Y-85600857D01*
X105128873Y-85219904D02*
X105081254Y-85172285D01*
X105081254Y-85172285D02*
X105033635Y-85077047D01*
X105033635Y-85077047D02*
X105033635Y-84838952D01*
X105033635Y-84838952D02*
X105081254Y-84743714D01*
X105081254Y-84743714D02*
X105128873Y-84696095D01*
X105128873Y-84696095D02*
X105224111Y-84648476D01*
X105224111Y-84648476D02*
X105319349Y-84648476D01*
X105319349Y-84648476D02*
X105462206Y-84696095D01*
X105462206Y-84696095D02*
X106033635Y-85267523D01*
X106033635Y-85267523D02*
X106033635Y-84648476D01*
X105033635Y-84029428D02*
X105033635Y-83934190D01*
X105033635Y-83934190D02*
X105081254Y-83838952D01*
X105081254Y-83838952D02*
X105128873Y-83791333D01*
X105128873Y-83791333D02*
X105224111Y-83743714D01*
X105224111Y-83743714D02*
X105414587Y-83696095D01*
X105414587Y-83696095D02*
X105652682Y-83696095D01*
X105652682Y-83696095D02*
X105843158Y-83743714D01*
X105843158Y-83743714D02*
X105938396Y-83791333D01*
X105938396Y-83791333D02*
X105986016Y-83838952D01*
X105986016Y-83838952D02*
X106033635Y-83934190D01*
X106033635Y-83934190D02*
X106033635Y-84029428D01*
X106033635Y-84029428D02*
X105986016Y-84124666D01*
X105986016Y-84124666D02*
X105938396Y-84172285D01*
X105938396Y-84172285D02*
X105843158Y-84219904D01*
X105843158Y-84219904D02*
X105652682Y-84267523D01*
X105652682Y-84267523D02*
X105414587Y-84267523D01*
X105414587Y-84267523D02*
X105224111Y-84219904D01*
X105224111Y-84219904D02*
X105128873Y-84172285D01*
X105128873Y-84172285D02*
X105081254Y-84124666D01*
X105081254Y-84124666D02*
X105033635Y-84029428D01*
X72717424Y-45404666D02*
X72765044Y-45452285D01*
X72765044Y-45452285D02*
X72812663Y-45595142D01*
X72812663Y-45595142D02*
X72812663Y-45690380D01*
X72812663Y-45690380D02*
X72765044Y-45833237D01*
X72765044Y-45833237D02*
X72669805Y-45928475D01*
X72669805Y-45928475D02*
X72574567Y-45976094D01*
X72574567Y-45976094D02*
X72384091Y-46023713D01*
X72384091Y-46023713D02*
X72241234Y-46023713D01*
X72241234Y-46023713D02*
X72050758Y-45976094D01*
X72050758Y-45976094D02*
X71955520Y-45928475D01*
X71955520Y-45928475D02*
X71860282Y-45833237D01*
X71860282Y-45833237D02*
X71812663Y-45690380D01*
X71812663Y-45690380D02*
X71812663Y-45595142D01*
X71812663Y-45595142D02*
X71860282Y-45452285D01*
X71860282Y-45452285D02*
X71907901Y-45404666D01*
X71907901Y-45023713D02*
X71860282Y-44976094D01*
X71860282Y-44976094D02*
X71812663Y-44880856D01*
X71812663Y-44880856D02*
X71812663Y-44642761D01*
X71812663Y-44642761D02*
X71860282Y-44547523D01*
X71860282Y-44547523D02*
X71907901Y-44499904D01*
X71907901Y-44499904D02*
X72003139Y-44452285D01*
X72003139Y-44452285D02*
X72098377Y-44452285D01*
X72098377Y-44452285D02*
X72241234Y-44499904D01*
X72241234Y-44499904D02*
X72812663Y-45071332D01*
X72812663Y-45071332D02*
X72812663Y-44452285D01*
X135640951Y-94139580D02*
X135593332Y-94187200D01*
X135593332Y-94187200D02*
X135450475Y-94234819D01*
X135450475Y-94234819D02*
X135355237Y-94234819D01*
X135355237Y-94234819D02*
X135212380Y-94187200D01*
X135212380Y-94187200D02*
X135117142Y-94091961D01*
X135117142Y-94091961D02*
X135069523Y-93996723D01*
X135069523Y-93996723D02*
X135021904Y-93806247D01*
X135021904Y-93806247D02*
X135021904Y-93663390D01*
X135021904Y-93663390D02*
X135069523Y-93472914D01*
X135069523Y-93472914D02*
X135117142Y-93377676D01*
X135117142Y-93377676D02*
X135212380Y-93282438D01*
X135212380Y-93282438D02*
X135355237Y-93234819D01*
X135355237Y-93234819D02*
X135450475Y-93234819D01*
X135450475Y-93234819D02*
X135593332Y-93282438D01*
X135593332Y-93282438D02*
X135640951Y-93330057D01*
X135831428Y-94330057D02*
X136593332Y-94330057D01*
X136831428Y-94234819D02*
X136831428Y-93234819D01*
X136831428Y-93234819D02*
X137164761Y-93949104D01*
X137164761Y-93949104D02*
X137498094Y-93234819D01*
X137498094Y-93234819D02*
X137498094Y-94234819D01*
X138402856Y-94234819D02*
X138402856Y-93711009D01*
X138402856Y-93711009D02*
X138355237Y-93615771D01*
X138355237Y-93615771D02*
X138259999Y-93568152D01*
X138259999Y-93568152D02*
X138069523Y-93568152D01*
X138069523Y-93568152D02*
X137974285Y-93615771D01*
X138402856Y-94187200D02*
X138307618Y-94234819D01*
X138307618Y-94234819D02*
X138069523Y-94234819D01*
X138069523Y-94234819D02*
X137974285Y-94187200D01*
X137974285Y-94187200D02*
X137926666Y-94091961D01*
X137926666Y-94091961D02*
X137926666Y-93996723D01*
X137926666Y-93996723D02*
X137974285Y-93901485D01*
X137974285Y-93901485D02*
X138069523Y-93853866D01*
X138069523Y-93853866D02*
X138307618Y-93853866D01*
X138307618Y-93853866D02*
X138402856Y-93806247D01*
X138736190Y-93568152D02*
X139117142Y-93568152D01*
X138879047Y-93234819D02*
X138879047Y-94091961D01*
X138879047Y-94091961D02*
X138926666Y-94187200D01*
X138926666Y-94187200D02*
X139021904Y-94234819D01*
X139021904Y-94234819D02*
X139117142Y-94234819D01*
X139879047Y-94187200D02*
X139783809Y-94234819D01*
X139783809Y-94234819D02*
X139593333Y-94234819D01*
X139593333Y-94234819D02*
X139498095Y-94187200D01*
X139498095Y-94187200D02*
X139450476Y-94139580D01*
X139450476Y-94139580D02*
X139402857Y-94044342D01*
X139402857Y-94044342D02*
X139402857Y-93758628D01*
X139402857Y-93758628D02*
X139450476Y-93663390D01*
X139450476Y-93663390D02*
X139498095Y-93615771D01*
X139498095Y-93615771D02*
X139593333Y-93568152D01*
X139593333Y-93568152D02*
X139783809Y-93568152D01*
X139783809Y-93568152D02*
X139879047Y-93615771D01*
X140307619Y-94234819D02*
X140307619Y-93234819D01*
X140736190Y-94234819D02*
X140736190Y-93711009D01*
X140736190Y-93711009D02*
X140688571Y-93615771D01*
X140688571Y-93615771D02*
X140593333Y-93568152D01*
X140593333Y-93568152D02*
X140450476Y-93568152D01*
X140450476Y-93568152D02*
X140355238Y-93615771D01*
X140355238Y-93615771D02*
X140307619Y-93663390D01*
X140974286Y-94330057D02*
X141736190Y-94330057D01*
X141926667Y-93330057D02*
X141974286Y-93282438D01*
X141974286Y-93282438D02*
X142069524Y-93234819D01*
X142069524Y-93234819D02*
X142307619Y-93234819D01*
X142307619Y-93234819D02*
X142402857Y-93282438D01*
X142402857Y-93282438D02*
X142450476Y-93330057D01*
X142450476Y-93330057D02*
X142498095Y-93425295D01*
X142498095Y-93425295D02*
X142498095Y-93520533D01*
X142498095Y-93520533D02*
X142450476Y-93663390D01*
X142450476Y-93663390D02*
X141879048Y-94234819D01*
X141879048Y-94234819D02*
X142498095Y-94234819D01*
X105918396Y-45404666D02*
X105966016Y-45452285D01*
X105966016Y-45452285D02*
X106013635Y-45595142D01*
X106013635Y-45595142D02*
X106013635Y-45690380D01*
X106013635Y-45690380D02*
X105966016Y-45833237D01*
X105966016Y-45833237D02*
X105870777Y-45928475D01*
X105870777Y-45928475D02*
X105775539Y-45976094D01*
X105775539Y-45976094D02*
X105585063Y-46023713D01*
X105585063Y-46023713D02*
X105442206Y-46023713D01*
X105442206Y-46023713D02*
X105251730Y-45976094D01*
X105251730Y-45976094D02*
X105156492Y-45928475D01*
X105156492Y-45928475D02*
X105061254Y-45833237D01*
X105061254Y-45833237D02*
X105013635Y-45690380D01*
X105013635Y-45690380D02*
X105013635Y-45595142D01*
X105013635Y-45595142D02*
X105061254Y-45452285D01*
X105061254Y-45452285D02*
X105108873Y-45404666D01*
X105013635Y-44547523D02*
X105013635Y-44737999D01*
X105013635Y-44737999D02*
X105061254Y-44833237D01*
X105061254Y-44833237D02*
X105108873Y-44880856D01*
X105108873Y-44880856D02*
X105251730Y-44976094D01*
X105251730Y-44976094D02*
X105442206Y-45023713D01*
X105442206Y-45023713D02*
X105823158Y-45023713D01*
X105823158Y-45023713D02*
X105918396Y-44976094D01*
X105918396Y-44976094D02*
X105966016Y-44928475D01*
X105966016Y-44928475D02*
X106013635Y-44833237D01*
X106013635Y-44833237D02*
X106013635Y-44642761D01*
X106013635Y-44642761D02*
X105966016Y-44547523D01*
X105966016Y-44547523D02*
X105918396Y-44499904D01*
X105918396Y-44499904D02*
X105823158Y-44452285D01*
X105823158Y-44452285D02*
X105585063Y-44452285D01*
X105585063Y-44452285D02*
X105489825Y-44499904D01*
X105489825Y-44499904D02*
X105442206Y-44547523D01*
X105442206Y-44547523D02*
X105394587Y-44642761D01*
X105394587Y-44642761D02*
X105394587Y-44833237D01*
X105394587Y-44833237D02*
X105442206Y-44928475D01*
X105442206Y-44928475D02*
X105489825Y-44976094D01*
X105489825Y-44976094D02*
X105585063Y-45023713D01*
%TO.C,C_Tune_1*%
D10*
X103130042Y-94920000D02*
X96030042Y-94920000D01*
X96030042Y-104020000D01*
X103130042Y-104020000D01*
X103130042Y-94920000D01*
%TO.C,C_Match_1*%
X94144842Y-94920000D02*
X87044842Y-94920000D01*
X87044842Y-104020000D01*
X94144842Y-104020000D01*
X94144842Y-94920000D01*
%TO.C,C_Tune_2*%
X136116765Y-94920000D02*
X129016765Y-94920000D01*
X129016765Y-104020000D01*
X136116765Y-104020000D01*
X136116765Y-94920000D01*
%TO.C,C_Match_2*%
X145101965Y-94920000D02*
X138001965Y-94920000D01*
X138001965Y-104020000D01*
X145101965Y-104020000D01*
X145101965Y-94920000D01*
%TD*%
M02*
