%TF.GenerationSoftware,KiCad,Pcbnew,9.0.4*%
%TF.CreationDate,2025-11-24T10:01:03-06:00*%
%TF.ProjectId,birdcage_rat_head,62697264-6361-4676-955f-7261745f6865,rev?*%
%TF.SameCoordinates,Original*%
%TF.FileFunction,Soldermask,Top*%
%TF.FilePolarity,Negative*%
%FSLAX46Y46*%
G04 Gerber Fmt 4.6, Leading zero omitted, Abs format (unit mm)*
G04 Created by KiCad (PCBNEW 9.0.4) date 2025-11-24 10:01:03*
%MOMM*%
%LPD*%
G01*
G04 APERTURE LIST*
G04 Aperture macros list*
%AMRoundRect*
0 Rectangle with rounded corners*
0 $1 Rounding radius*
0 $2 $3 $4 $5 $6 $7 $8 $9 X,Y pos of 4 corners*
0 Add a 4 corners polygon primitive as box body*
4,1,4,$2,$3,$4,$5,$6,$7,$8,$9,$2,$3,0*
0 Add four circle primitives for the rounded corners*
1,1,$1+$1,$2,$3*
1,1,$1+$1,$4,$5*
1,1,$1+$1,$6,$7*
1,1,$1+$1,$8,$9*
0 Add four rect primitives between the rounded corners*
20,1,$1+$1,$2,$3,$4,$5,0*
20,1,$1+$1,$4,$5,$6,$7,0*
20,1,$1+$1,$6,$7,$8,$9,0*
20,1,$1+$1,$8,$9,$2,$3,0*%
G04 Aperture macros list end*
%ADD10RoundRect,0.500000X-1.000000X-1.000000X1.000000X-1.000000X1.000000X1.000000X-1.000000X1.000000X0*%
%ADD11RoundRect,0.250000X-0.250000X1.750000X-0.250000X-1.750000X0.250000X-1.750000X0.250000X1.750000X0*%
%ADD12RoundRect,0.250000X-0.250000X2.250000X-0.250000X-2.250000X0.250000X-2.250000X0.250000X2.250000X0*%
%ADD13C,1.700000*%
%ADD14RoundRect,0.250000X1.250000X-0.250000X1.250000X0.250000X-1.250000X0.250000X-1.250000X-0.250000X0*%
%ADD15RoundRect,0.250000X0.250000X-1.250000X0.250000X1.250000X-0.250000X1.250000X-0.250000X-1.250000X0*%
G04 APERTURE END LIST*
D10*
%TO.C,REF\u002A\u002A*%
X64240000Y-38320000D03*
%TD*%
D11*
%TO.C,C_Tune_1*%
X102070042Y-101390000D03*
X97050042Y-101390000D03*
D12*
X99570042Y-97890000D03*
%TD*%
D13*
%TO.C,J1*%
X81150042Y-100060000D03*
X83740042Y-97520000D03*
X78660042Y-97520000D03*
X83740042Y-102600000D03*
X78660042Y-102600000D03*
%TD*%
D14*
%TO.C,C24*%
X149060127Y-89820000D03*
X149060127Y-87820000D03*
%TD*%
D10*
%TO.C,REF\u002A\u002A*%
X64230000Y-91320000D03*
%TD*%
D14*
%TO.C,C14*%
X182046849Y-41820000D03*
X182046849Y-39820000D03*
%TD*%
%TO.C,C16*%
X66593319Y-89820000D03*
X66593319Y-87820000D03*
%TD*%
D11*
%TO.C,C_Match_1*%
X93084842Y-101390000D03*
X88064842Y-101390000D03*
D12*
X90584842Y-97890000D03*
%TD*%
D14*
%TO.C,C21*%
X116073404Y-89820000D03*
X116073404Y-87820000D03*
%TD*%
%TO.C,C1*%
X66593319Y-41820000D03*
X66593319Y-39820000D03*
%TD*%
%TO.C,C10*%
X149060127Y-41820000D03*
X149060127Y-39820000D03*
%TD*%
%TO.C,C18*%
X83086681Y-89820000D03*
X83086681Y-87820000D03*
%TD*%
D10*
%TO.C,REF\u002A\u002A*%
X192660000Y-91320000D03*
%TD*%
D14*
%TO.C,C17*%
X74840000Y-89820000D03*
X74840000Y-87820000D03*
%TD*%
%TO.C,C27*%
X173800169Y-89820000D03*
X173800169Y-87820000D03*
%TD*%
%TO.C,C4*%
X91333362Y-41820000D03*
X91333362Y-39820000D03*
%TD*%
D11*
%TO.C,C_Tune_2*%
X135056765Y-101390000D03*
X130036765Y-101390000D03*
D12*
X132556765Y-97890000D03*
%TD*%
D14*
%TO.C,C29*%
X190293530Y-89820000D03*
X190293530Y-87820000D03*
%TD*%
%TO.C,C5*%
X99580042Y-41820000D03*
X99580042Y-39820000D03*
%TD*%
D13*
%TO.C,J2*%
X150901965Y-100060000D03*
X153491965Y-97520000D03*
X148411965Y-97520000D03*
X153491965Y-102600000D03*
X148411965Y-102600000D03*
%TD*%
D14*
%TO.C,C8*%
X132566765Y-41820000D03*
X132566765Y-39820000D03*
%TD*%
%TO.C,C22*%
X124320084Y-89820000D03*
X124320084Y-87820000D03*
%TD*%
%TO.C,C9*%
X140813446Y-41820000D03*
X140813446Y-39820000D03*
%TD*%
%TO.C,C3*%
X83086681Y-41820000D03*
X83086681Y-39820000D03*
%TD*%
%TO.C,C25*%
X157306807Y-89820000D03*
X157306807Y-87820000D03*
%TD*%
%TO.C,C19*%
X91333362Y-89820000D03*
X91333362Y-87820000D03*
%TD*%
D15*
%TO.C,C_D1*%
X114370000Y-38310000D03*
X117870000Y-38310000D03*
X116070000Y-42010000D03*
%TD*%
D10*
%TO.C,REF\u002A\u002A*%
X192670000Y-38320000D03*
%TD*%
D14*
%TO.C,C13*%
X173800169Y-41820000D03*
X173800169Y-39820000D03*
%TD*%
%TO.C,C12*%
X165553488Y-41820000D03*
X165553488Y-39820000D03*
%TD*%
%TO.C,C15*%
X190293530Y-41820000D03*
X190293530Y-39820000D03*
%TD*%
%TO.C,C26*%
X165553488Y-89820000D03*
X165553488Y-87820000D03*
%TD*%
%TO.C,C28*%
X182046849Y-89820000D03*
X182046849Y-87820000D03*
%TD*%
%TO.C,C7*%
X124320084Y-41820000D03*
X124320084Y-39820000D03*
%TD*%
%TO.C,C23*%
X140813446Y-89820000D03*
X140813446Y-87820000D03*
%TD*%
%TO.C,C11*%
X157306807Y-41820000D03*
X157306807Y-39820000D03*
%TD*%
%TO.C,C20*%
X107826723Y-89820000D03*
X107826723Y-87820000D03*
%TD*%
%TO.C,C2*%
X74840000Y-41820000D03*
X74840000Y-39820000D03*
%TD*%
D11*
%TO.C,C_Match_2*%
X144041965Y-101390000D03*
X139021965Y-101390000D03*
D12*
X141541965Y-97890000D03*
%TD*%
D14*
%TO.C,C6*%
X107826723Y-41820000D03*
X107826723Y-39820000D03*
%TD*%
M02*
